<?xml version="1.0" standalone="no"?>
<!DOCTYPE svg PUBLIC "-//W3C//DTD SVG 1.1//EN" "http://www.w3.org/Graphics/SVG/1.1/DTD/svg11.dtd" >
<svg xmlns="http://www.w3.org/2000/svg" xmlns:xlink="http://www.w3.org/1999/xlink" version="1.1">
<metadata>
Created by FontForge 20200427 at Thu Feb 12 22:14:54 2015
 By www
Copyright (c) 2012 by TypeTogether. All rights reserved.
</metadata>
<defs>
<font id="TabletGothicCondensedW02-Hv" horiz-adv-x="500" >
  <font-face 
    font-family="TabletGothicCondensedW02-Hv"
    font-weight="900"
    font-stretch="normal"
    units-per-em="1000"
    panose-1="2 0 5 3 0 0 0 2 0 4"
    ascent="800"
    descent="-200"
    x-height="523"
    cap-height="734"
    bbox="-129 -282 922 969"
    underline-thickness="50"
    underline-position="-125"
    unicode-range="U+0020-FB02"
  />
<missing-glyph horiz-adv-x="121" 
 />
    <glyph glyph-name=".notdef" horiz-adv-x="121" 
 />
    <glyph glyph-name=".null" horiz-adv-x="0" 
 />
    <glyph glyph-name="nonmarkingreturn" horiz-adv-x="333" 
 />
    <glyph glyph-name="space" unicode=" " horiz-adv-x="139" 
 />
    <glyph glyph-name="exclam" unicode="!" horiz-adv-x="314" 
d="M87 218l-31 516h202l-25 -516h-146zM83 170h154v-170h-154v170z" />
    <glyph glyph-name="quotedbl" unicode="&#x22;" horiz-adv-x="330" 
d="M303 734l-14 -211h-103l-10 211h127zM154 734l-14 -211h-103l-10 211h127z" />
    <glyph glyph-name="numbersign" unicode="#" horiz-adv-x="544" 
d="M267 0l13 104h-70l-13 -104h-132l14 104h-65l17 128h65l14 104h-69l18 128h67l12 91h132l-12 -91h69l13 91h132l-12 -91h65l-18 -128h-64l-14 -104h71l-17 -128h-70l-14 -104h-132zM311 336h-71l-13 -104h71z" />
    <glyph glyph-name="dollar" unicode="$" horiz-adv-x="482" 
d="M275 489q1 51 -9 71t-30 20q-17 0 -24.5 -10.5t-7.5 -24.5q0 -30 20 -48t54 -39q28 -16 60.5 -34.5t60.5 -44t46 -61.5t18 -88q0 -89 -40.5 -141t-103.5 -70v-85h-159v84q-71 19 -103 72.5t-33 143.5l177 18q1 -32 4.5 -51.5t10 -31t15.5 -15.5t20 -4q18 0 25.5 11.5
t7.5 31.5q0 34 -28 56.5t-65 43.5q-28 15 -58 33t-55 44t-41 62t-16 88q0 78 38 127.5t101 68.5v82h159v-79q126 -34 123 -210z" />
    <glyph glyph-name="percent" unicode="%" horiz-adv-x="761" 
d="M584 -13q-80 0 -114.5 50.5t-34.5 158.5q0 103 41 156t119 53q81 0 113.5 -51t32.5 -151q0 -109 -40 -162.5t-117 -53.5zM587 83q7 0 12 4.5t8.5 17.5t5 35.5t1.5 58.5q0 37 -1 59t-4 34t-7.5 15.5t-11.5 3.5q-5 0 -10 -3t-8.5 -14.5t-5.5 -33.5t-2 -60q0 -36 0.5 -58.5
t3 -35.5t7 -18t12.5 -5zM495 760l115 -50l-330 -722l-115 52zM168 316q-79 0 -113.5 50.5t-34.5 158.5q0 103 41 156t119 53q80 0 112.5 -51.5t32.5 -150.5q0 -109 -40 -162.5t-117 -53.5zM171 412q7 0 12.5 4.5t9 17.5t5 35.5t1.5 58.5q0 37 -1 59t-4 34t-8 15.5t-12 3.5
q-5 0 -10 -3t-8.5 -14.5t-5.5 -33.5t-2 -60q0 -36 1 -58.5t3 -35.5t6.5 -18t12.5 -5z" />
    <glyph glyph-name="ampersand" unicode="&#x26;" horiz-adv-x="628" 
d="M232 272q-15 -14 -22.5 -33.5t-7.5 -39.5q0 -29 17 -47.5t47 -18.5q37 0 61 20zM302 521q2 10 4.5 21.5t2.5 23.5q1 17 -5.5 30t-25.5 13q-15 0 -24 -8.5t-9 -27.5q0 -17 11 -41.5t38 -59.5l129 -169q4 10 7.5 28t5.5 37.5t3 38t1 29.5l159 -18q0 -69 -16.5 -139.5
t-47.5 -120.5l79 -100l-131 -101l-66 78q-24 -14 -68.5 -30.5t-112.5 -16.5q-104 0 -161 51.5t-57 147.5q0 55 26 106.5t98 95.5q-34 42 -52.5 83.5t-18.5 88.5q0 86 57.5 136t156.5 50q85 0 135.5 -39t50.5 -125q0 -18 -2.5 -39t-8.5 -44z" />
    <glyph glyph-name="quotesingle" unicode="'" horiz-adv-x="182" 
d="M154 734l-14 -211h-103l-10 211h127z" />
    <glyph glyph-name="parenleft" unicode="(" horiz-adv-x="316" 
d="M308 767q-40 -102 -61.5 -209.5t-21.5 -219.5q0 -122 25 -232.5t59 -216.5l-109 -47q-53 61 -87.5 120.5t-55.5 119.5t-29.5 121.5t-8.5 127.5q0 54 9.5 112.5t31 119t55.5 121.5t83 120z" />
    <glyph glyph-name="parenright" unicode=")" horiz-adv-x="316" 
d="M7 -118q35 86 59.5 195.5t24.5 224.5q0 118 -24 233t-59 224l109 48q54 -66 89 -127t55.5 -121t28 -121t7.5 -126q0 -109 -41 -228.5t-139 -237.5z" />
    <glyph glyph-name="asterisk" unicode="*" horiz-adv-x="393" 
d="M257 736l-38 -132l113 77l35 -113l-141 -3l111 -84l-96 -68l-44 125l-49 -124l-95 69l112 85l-137 4l35 111l115 -79l-37 132h116z" />
    <glyph glyph-name="plus" unicode="+" horiz-adv-x="472" 
d="M299 281v-98h-126v98h-98v126h98v98h126v-98h98v-126h-98z" />
    <glyph glyph-name="comma" unicode="," horiz-adv-x="207" 
d="M25 173h157v-141l-72 -170l-67 19l29 119h-47v173z" />
    <glyph glyph-name="hyphen" unicode="-" horiz-adv-x="261" 
d="M23 233v134h216v-134h-216z" />
    <glyph glyph-name="period" unicode="." horiz-adv-x="205" 
d="M25 173h155v-173h-155v173z" />
    <glyph glyph-name="slash" unicode="/" horiz-adv-x="433" 
d="M269 774l158 -46l-279 -851l-157 48z" />
    <glyph glyph-name="zero" unicode="0" horiz-adv-x="485" 
d="M239 -12q-66 0 -109 24.5t-67.5 72t-34 118t-9.5 163.5q0 188 54 285t179 97q66 0 107.5 -24.5t65.5 -72t32.5 -116t8.5 -155.5q0 -98 -12 -171t-38.5 -122.5t-70 -74t-106.5 -24.5zM243 137q13 0 21 8t12.5 33t6.5 71.5t2 123.5q0 75 -2 119.5t-6.5 67.5t-12 30t-18.5 7
t-19.5 -7.5t-14.5 -31.5t-9 -69t-3 -120q0 -76 2 -121.5t6.5 -70t13 -32.5t21.5 -8z" />
    <glyph glyph-name="one" unicode="1" horiz-adv-x="353" 
d="M8 638q19 6 44.5 16t51.5 23t51 28t43 29h110v-734h-176v531q-15 -11 -38.5 -21.5t-52.5 -22.5z" />
    <glyph glyph-name="two" unicode="2" horiz-adv-x="420" 
d="M382 158v-158h-352q-3 34 -3 75q0 18 1 35t3 31q7 48 25 87.5t40.5 74.5t46.5 66.5t44 62.5t33 63.5t13 69.5q0 20 -5 29.5t-19 9.5q-18 0 -23.5 -23t2.5 -80l-165 -11q-9 53 -3.5 100t29 82t66 55.5t105.5 20.5q91 0 139 -46.5t48 -135.5q0 -54 -13 -96t-32.5 -76.5
t-42.5 -63.5t-43.5 -56.5t-36 -55.5t-18.5 -60h161z" />
    <glyph glyph-name="three" unicode="3" horiz-adv-x="428" 
d="M126 444q37 2 57.5 9.5t30.5 21t12.5 34t2.5 47.5t-5.5 37.5t-15.5 10.5q-5 0 -10.5 -3t-9 -13.5t-4.5 -29.5t3 -51l-160 -9q-7 48 -1.5 93t27 80t62 56t103.5 21q94 0 140.5 -47t46.5 -137q0 -36 -10.5 -65t-27.5 -51t-38 -36.5t-43 -23.5q38 -11 63 -29.5t39.5 -42
t20 -51t5.5 -57.5q0 -113 -49 -166.5t-150 -53.5q-57 0 -95.5 15.5t-61.5 45.5t-33.5 74t-11.5 101l170 9q1 -29 3 -47.5t5.5 -29t9 -14.5t12.5 -4q15 0 18.5 17t3.5 53q0 52 -20.5 72.5t-77.5 19.5z" />
    <glyph glyph-name="four" unicode="4" horiz-adv-x="482" 
d="M241 266v263h-4l-72 -263h76zM408 266h59v-151h-59v-115h-167v115h-233v106l179 513h221v-468z" />
    <glyph glyph-name="five" unicode="5" horiz-adv-x="438" 
d="M209 346q-28 0 -34 -52l-144 12l22 428h335v-158h-193l-20 -144q14 22 42 39.5t66 17.5q26 0 50.5 -9t43 -35.5t30 -73.5t11.5 -122t-13.5 -125t-39.5 -80.5t-64 -43t-86 -12.5t-85.5 13t-63.5 41t-39 73t-12 109l174 9q-2 -55 5 -73.5t22 -18.5q18 0 21 26t3 75
q0 36 -2.5 56.5t-7 31t-10 13.5t-11.5 3z" />
    <glyph glyph-name="six" unicode="6" horiz-adv-x="448" 
d="M235 598q-9 0 -16.5 -7.5t-13 -29t-9 -60t-4.5 -99.5q5 9 14.5 18.5t23 17.5t30 13.5t35.5 5.5q27 0 51.5 -10t43 -34.5t30 -67t11.5 -107.5q0 -128 -55.5 -189t-151.5 -61q-59 0 -99 20t-64 62.5t-34.5 109t-10.5 159.5q0 100 13 176.5t41.5 128.5t74 78t110.5 26
q42 0 74 -12.5t53.5 -39.5t30.5 -70t5 -105l-166 -7q4 47 0.5 65.5t-17.5 18.5zM223 325q-17 0 -23.5 -20.5t-6.5 -68.5q0 -29 1 -48.5t4.5 -31.5t10 -17t16.5 -5q19 0 24 21.5t5 81.5q0 28 -2 45.5t-6 27t-10 12.5t-13 3z" />
    <glyph glyph-name="seven" unicode="7" horiz-adv-x="373" 
d="M55 0q1 105 14.5 189.5t35 154t49 126t57.5 106.5h-201v158h366v-118q-36 -60 -57.5 -119.5t-33.5 -119.5t-16.5 -121.5t-5.5 -125.5q0 -33 1.5 -65.5t3.5 -64.5h-213z" />
    <glyph glyph-name="eight" unicode="8" horiz-adv-x="476" 
d="M233 -12q-58 0 -99 16t-67.5 43.5t-39 65.5t-12.5 82q0 78 31 130t96 75q-58 18 -82.5 60.5t-24.5 96.5q0 42 13.5 77.5t39.5 60.5t65 39t90 14q52 0 89.5 -13t61.5 -37t35 -58t11 -77q0 -56 -28 -101t-82 -59q67 -17 99 -67.5t32 -128.5q0 -50 -13.5 -90t-41 -69
t-70.5 -44.5t-103 -15.5zM239 136q19 0 31.5 18t12.5 71q0 56 -11 75.5t-32 19.5q-25 0 -35 -21.5t-10 -75.5q0 -51 10 -69t34 -18zM239 473q19 0 25.5 16.5t6.5 66.5q0 39 -9.5 52.5t-24.5 13.5q-17 0 -24.5 -15t-7.5 -51q0 -45 7 -64t27 -19z" />
    <glyph glyph-name="nine" unicode="9" horiz-adv-x="449" 
d="M218 138q9 0 16 7.5t12.5 29.5t8.5 61t4 101q-5 -8 -14.5 -17.5t-22.5 -17.5t-29.5 -13.5t-34.5 -5.5q-27 0 -52 9.5t-44.5 34.5t-31.5 67t-12 108q0 123 56.5 184.5t151.5 61.5q59 0 98.5 -20t63.5 -63t34.5 -110t10.5 -161q0 -99 -12 -175t-38.5 -127.5t-69 -77.5
t-103.5 -26q-45 0 -80.5 12.5t-59.5 39.5t-35.5 70.5t-8.5 105.5l169 9q-2 -45 1.5 -66t21.5 -21zM226 414q18 0 24 20t6 64q0 31 -1 51t-4.5 32t-9.5 16.5t-15 4.5q-20 0 -25 -21.5t-5 -82.5q0 -28 2 -44.5t6 -25.5t9.5 -11.5t12.5 -2.5z" />
    <glyph glyph-name="colon" unicode=":" horiz-adv-x="205" 
d="M25 173h155v-173h-155v173zM25 523h155v-173h-155v173z" />
    <glyph glyph-name="semicolon" unicode=";" horiz-adv-x="208" 
d="M26 173h157v-141l-72 -170l-67 19l29 119h-47v173zM25 523h155v-173h-155v173z" />
    <glyph glyph-name="less" unicode="&#x3c;" horiz-adv-x="472" 
d="M75 200v166l322 121v-151l-180 -49l180 -44v-150z" />
    <glyph glyph-name="equal" unicode="=" horiz-adv-x="472" 
d="M75 158v126h322v-126h-322zM75 321v126h322v-126h-322z" />
    <glyph glyph-name="greater" unicode="&#x3e;" horiz-adv-x="472" 
d="M397 379v-166l-322 -120v151l179 50l-179 43v150z" />
    <glyph glyph-name="question" unicode="?" horiz-adv-x="472" 
d="M253 523q0 46 -5 60t-19 14q-6 0 -11 -2.5t-9 -11.5t-6.5 -27t-2.5 -48l-178 12q0 47 9.5 88.5t33.5 72.5t65.5 49t104.5 18q109 0 160 -57.5t51 -164.5q0 -59 -11 -98.5t-32 -66.5t-51 -43t-67 -27l-10 -77h-154l-10 179q44 2 71.5 10t43.5 23.5t21.5 39.5t5.5 57z
M120 170h155v-170h-155v170z" />
    <glyph glyph-name="at" unicode="@" horiz-adv-x="753" 
d="M570 -99q-13 -15 -34.5 -28.5t-48.5 -24t-58 -16.5t-64 -6q-69 0 -128.5 20.5t-104 63t-70 108.5t-25.5 156q0 95 25 169t71 125t111 78t145 27q75 0 135.5 -20.5t103 -61t65.5 -101t23 -141.5q0 -70 -13.5 -119t-36.5 -79.5t-54.5 -44.5t-68.5 -14q-49 0 -78 20t-41 42
q-14 -30 -39.5 -46.5t-62.5 -16.5t-61 15.5t-38.5 40.5t-20 57t-5.5 66q0 35 8 75t26 73.5t47.5 56t73.5 22.5q36 0 55 -16.5t27 -29.5l9 40h102l-25 -220q-3 -20 -4.5 -37.5t0.5 -31t9.5 -21.5t24.5 -8q33 0 49.5 41.5t16.5 119.5q0 73 -17.5 121.5t-47.5 77t-71.5 40.5
t-89.5 12q-63 0 -110 -22t-77.5 -62.5t-46 -97.5t-15.5 -127q0 -121 58 -192t173 -71q54 0 90 17t56 37zM421 241q4 32 -5.5 53.5t-37.5 21.5q-19 0 -31.5 -11t-20 -30t-11.5 -45t-6 -56q-1 -20 0 -38t5.5 -32t14.5 -22t27 -8q15 0 25 8.5t16.5 21t9.5 28t5 30.5z" />
    <glyph glyph-name="A" unicode="A" horiz-adv-x="529" 
d="M374 734l160 -734h-190l-24 145h-119l-24 -145h-182l150 734h229zM263 538h-6l-33 -242h71z" />
    <glyph glyph-name="B" unicode="B" horiz-adv-x="491" 
d="M28 0v734h200q112 0 170.5 -43t58.5 -138q0 -39 -11.5 -68t-29.5 -49t-39.5 -32t-40.5 -16v-3q32 -5 58.5 -17.5t45 -33.5t29 -52t10.5 -74q0 -57 -17.5 -96.5t-50.5 -64.5t-81 -36t-110 -11h-192zM228 149q43 0 56.5 20.5t13.5 55.5q0 36 -14 53t-47 17h-31v-146h22z
M226 444q33 0 44.5 21t11.5 50q0 24 -4.5 38t-12 21.5t-17.5 9.5t-20 2h-22v-142h20z" />
    <glyph glyph-name="C" unicode="C" horiz-adv-x="494" 
d="M259 131q26 0 33.5 33.5t6.5 98.5l172 -10q0 -141 -54 -203t-168 -62q-68 0 -112 23t-70.5 69.5t-37 116.5t-10.5 164q0 193 59.5 290t191.5 97q59 0 99.5 -17.5t65.5 -51.5t36 -85.5t10 -118.5l-174 -14q0 41 -2 67.5t-7 42t-13.5 21.5t-21.5 6q-16 0 -27 -11.5
t-18 -38.5t-10 -72t-3 -112q0 -70 2 -115t7.5 -71.5t16 -36.5t28.5 -10z" />
    <glyph glyph-name="D" unicode="D" horiz-adv-x="510" 
d="M28 0v734h170q84 0 140.5 -21.5t90.5 -65.5t48.5 -110t14.5 -156q0 -95 -14.5 -166t-49 -119t-91 -72t-141.5 -24h-168zM221 152q23 0 39 9.5t26.5 34.5t15.5 68t5 109q0 69 -6 110.5t-17 64t-27 29.5t-35 7h-16v-432h15z" />
    <glyph glyph-name="E" unicode="E" horiz-adv-x="430" 
d="M376 296h-170v-139h208v-157h-387v734h369v-157h-190v-128h170v-153z" />
    <glyph glyph-name="F" unicode="F" horiz-adv-x="406" 
d="M376 284h-170v-284h-179v734h369v-157h-190v-141h170v-152z" />
    <glyph glyph-name="G" unicode="G" horiz-adv-x="517" 
d="M278 371h214v-374h-130l-9 55q-24 -34 -56.5 -49t-70.5 -15q-57 0 -96.5 23t-64 70.5t-35.5 119t-11 167.5q0 187 61.5 283.5t197.5 96.5q109 0 156.5 -68t46.5 -203l-175 -14q0 41 -2 67.5t-7 41.5t-13 20.5t-21 5.5q-16 0 -27 -11.5t-18 -38t-10 -70.5t-3 -110
q0 -79 5 -126.5t14.5 -72.5t22.5 -32.5t30 -7.5q20 0 35 13.5t20 56.5v34h-54v138z" />
    <glyph glyph-name="H" unicode="H" horiz-adv-x="512" 
d="M484 0h-179v287h-99v-287h-178v734h178v-281h99v281h179v-734z" />
    <glyph glyph-name="I" unicode="I" horiz-adv-x="342" 
d="M260 131h64v-131h-306v131h64v472h-63v131h304v-131h-63v-472z" />
    <glyph glyph-name="J" unicode="J" horiz-adv-x="450" 
d="M186 261v-43.5t3 -39t9.5 -28t19.5 -10.5q17 0 23 17.5t6 72.5v504h179v-532q0 -105 -56 -159.5t-157 -54.5q-62 0 -102 19.5t-63 55t-31.5 83.5t-6.5 105z" />
    <glyph glyph-name="K" unicode="K" horiz-adv-x="535" 
d="M206 458l143 276h192l-179 -278l174 -456h-193l-97 287l-40 -63v-224h-178v734h178v-276z" />
    <glyph glyph-name="L" unicode="L" horiz-adv-x="393" 
d="M206 157h173v-157h-351v734h178v-577z" />
    <glyph glyph-name="M" unicode="M" horiz-adv-x="730" 
d="M282 0l-81 491h-4v-491h-169v734h263l75 -519h3l68 519h265v-734h-170v494h-6l-76 -494h-168z" />
    <glyph glyph-name="N" unicode="N" horiz-adv-x="540" 
d="M319 0l-119 388h-3v-388h-169v734h205l107 -382h4v382h168v-734h-193z" />
    <glyph glyph-name="O" unicode="O" horiz-adv-x="518" 
d="M252 -12q-68 0 -113 24.5t-71.5 72t-37.5 118t-11 163.5q0 188 59.5 285t189.5 97q69 0 114 -24t71.5 -70.5t36.5 -115t10 -158.5q0 -195 -56.5 -293.5t-191.5 -98.5zM259 135q14 0 24.5 9.5t17 35.5t10 72.5t3.5 120.5q0 69 -3 112t-9.5 67t-16.5 32.5t-23 8.5
q-15 0 -25.5 -9t-17.5 -34t-10.5 -69t-3.5 -113q0 -74 3 -119.5t9 -71t16.5 -34t25.5 -8.5z" />
    <glyph glyph-name="P" unicode="P" horiz-adv-x="470" 
d="M206 0h-178v734h178q59 0 106 -9.5t80 -34t50.5 -67t17.5 -109.5q0 -48 -9.5 -92t-35.5 -78t-71.5 -54.5t-118.5 -20.5h-19v-269zM220 421q32 0 46 18.5t14 63.5q0 44 -13.5 59t-36.5 15h-24v-156h14z" />
    <glyph glyph-name="Q" unicode="Q" horiz-adv-x="518" 
d="M248 -11h-12q-64 2 -106 27t-66.5 72.5t-34.5 117t-10 160.5q0 188 59.5 285t189.5 97q69 0 114 -24t71.5 -70.5t36.5 -115t10 -158.5q0 -124 -23.5 -208.5t-74.5 -129.5l60 -139l-120 -50zM259 135q14 0 24.5 9.5t17 35.5t10 72.5t3.5 120.5q0 69 -3 112t-9.5 67
t-16.5 32.5t-23 8.5q-15 0 -25.5 -9t-17.5 -34t-10.5 -69t-3.5 -113q0 -74 3 -119.5t9 -71t16.5 -34t25.5 -8.5z" />
    <glyph glyph-name="R" unicode="R" horiz-adv-x="490" 
d="M206 0h-178v734h183q58 0 104.5 -10t78.5 -34t49.5 -65t17.5 -104q0 -59 -18 -110t-65 -81l112 -330h-189l-84 294h-11v-294zM222 438q27 0 43 14.5t16 55.5q0 22 -4.5 35.5t-12 21t-16.5 10t-18 2.5h-24v-139h16z" />
    <glyph glyph-name="S" unicode="S" horiz-adv-x="477" 
d="M278 490q1 62 -10 85t-33 23q-18 0 -26 -11t-8 -27q0 -36 22.5 -57.5t59.5 -43.5q30 -17 62.5 -37.5t59.5 -48t45 -66t18 -91.5q0 -59 -16.5 -102t-46 -71t-70 -41.5t-88.5 -13.5q-123 0 -175.5 62t-55.5 179l183 20q0 -36 4.5 -58.5t12 -35t18 -17t23.5 -4.5q33 0 33 47
q0 20 -8.5 35.5t-22.5 28.5t-33.5 24t-40.5 23q-29 16 -59 35.5t-54.5 46t-40 63.5t-15.5 90q0 54 17 95t48 69t74 42.5t95 14.5q106 0 154 -59.5t47 -181.5z" />
    <glyph glyph-name="T" unicode="T" horiz-adv-x="426" 
d="M124 577h-124v157h426v-157h-124v-577h-178v577z" />
    <glyph glyph-name="U" unicode="U" horiz-adv-x="509" 
d="M306 734h178v-495q0 -53 -10 -98.5t-36.5 -79.5t-72.5 -53.5t-117 -19.5t-114.5 20.5t-67.5 55.5t-32.5 81.5t-8.5 99.5v489h178v-449q0 -40 0.5 -68.5t5.5 -46.5t15.5 -26.5t30.5 -8.5q18 0 28 8t15 25.5t6.5 46t1.5 69.5v450z" />
    <glyph glyph-name="V" unicode="V" horiz-adv-x="536" 
d="M537 734l-149 -734h-229l-160 734h193l77 -535h6l76 535h186z" />
    <glyph glyph-name="W" unicode="W" horiz-adv-x="814" 
d="M469 0l-58 475h-5l-49 -475h-234l-124 734h194l42 -541h6l69 541h203l73 -537h4l37 537h188l-113 -734h-233z" />
    <glyph glyph-name="X" unicode="X" horiz-adv-x="530" 
d="M-4 0l139 374l-137 360h200l67 -225h5l66 225h194l-130 -357l134 -377h-201l-67 237h-4l-63 -237h-203z" />
    <glyph glyph-name="Y" unicode="Y" horiz-adv-x="503" 
d="M340 0h-174v273l-175 461h196l67 -283h3l66 283h189l-172 -456v-278z" />
    <glyph glyph-name="Z" unicode="Z" horiz-adv-x="414" 
d="M14 734h387v-143l-188 -434h195v-157h-403v144l189 433h-180v157z" />
    <glyph glyph-name="bracketleft" unicode="[" horiz-adv-x="328" 
d="M317 -132h-281v915h279v-126l-89 -4v-653l91 -3v-129z" />
    <glyph glyph-name="backslash" unicode="\" horiz-adv-x="350" 
d="M337 -94l-165 -29l-161 883l166 29z" />
    <glyph glyph-name="bracketright" unicode="]" horiz-adv-x="328" 
d="M11 -3l91 3v653l-89 4v126h279v-915h-281v129z" />
    <glyph glyph-name="asciicircum" unicode="^" horiz-adv-x="495" 
d="M333 755l150 -360l-147 -51l-89 229h-2l-87 -229l-146 51l161 360h160z" />
    <glyph glyph-name="underscore" unicode="_" horiz-adv-x="368" 
d="M368 -48v-117h-368v117h368z" />
    <glyph glyph-name="grave" unicode="`" 
d="M229 782l112 -169l-67 -56l-153 135z" />
    <glyph glyph-name="a" unicode="a" horiz-adv-x="422" 
d="M419 6q-16 -6 -36 -10t-41 -4q-35 0 -63 14.5t-39 51.5q-12 -30 -38.5 -50t-71.5 -20q-37 0 -61 12.5t-38 33t-19.5 45.5t-5.5 51q0 53 19 85t49 51t67 27t73 13v33q0 28 -3.5 46t-19.5 18q-10 0 -14 -8.5t-4 -19.5q0 -8 2 -16.5t4 -15.5l-154 -17q-3 13 -4 25t-1 24
q0 33 10.5 62t32 51t55.5 34.5t82 12.5q60 0 97 -16.5t57 -46t26.5 -71t6.5 -90.5v-157q0 -17 3.5 -26.5t16.5 -9.5q6 0 10 1zM214 202q-22 -2 -34 -12.5t-12 -39.5q0 -13 4.5 -25.5t18.5 -12.5t18.5 12.5t4.5 31.5v46z" />
    <glyph glyph-name="b" unicode="b" horiz-adv-x="442" 
d="M27 0v734h172v-266h3q4 10 11.5 22t19 22t28 16.5t39.5 6.5q31 0 55 -13.5t40.5 -44.5t24.5 -80.5t8 -122.5q0 -81 -11.5 -136t-31.5 -88.5t-47.5 -47.5t-58.5 -14q-35 0 -61 17t-36 49h-3l-7 -54h-145zM195 265q0 -40 1 -66.5t4 -42t8.5 -22t15.5 -6.5q7 0 12 5t8 20
t4.5 42.5t1.5 71.5q0 42 -2 67t-5.5 38t-8.5 17t-11 4q-9 0 -14.5 -6t-8.5 -20.5t-4 -39t-1 -62.5z" />
    <glyph glyph-name="c" unicode="c" horiz-adv-x="414" 
d="M248 306q2 45 -5 65t-21 20q-8 0 -13.5 -3.5t-10 -17t-6.5 -39t-2 -70.5q0 -42 2 -67.5t5.5 -40t9.5 -19t15 -4.5q14 0 21 22.5t7 59.5l155 -10q-2 -63 -17.5 -104.5t-41 -65.5t-59.5 -34t-72 -10q-60 0 -99 20t-62 56t-32.5 86.5t-9.5 111.5q0 134 54.5 203.5
t160.5 69.5q53 0 88 -16.5t55 -46t27.5 -69t6.5 -85.5z" />
    <glyph glyph-name="d" unicode="d" horiz-adv-x="439" 
d="M415 734v-734h-150l-11 56h-3q-3 -10 -10.5 -22t-19 -22t-27 -17t-36.5 -7q-37 0 -64 14t-45 45.5t-26.5 81.5t-8.5 121q0 149 36.5 217t106.5 68q36 0 54 -16t29 -36h4v251h171zM247 261q0 71 -3.5 103t-21.5 32q-8 0 -13.5 -4.5t-9 -20t-5 -44t-1.5 -76.5
q0 -38 1.5 -62t4.5 -37.5t8 -18.5t13 -5q18 0 22.5 29.5t4.5 103.5z" />
    <glyph glyph-name="e" unicode="e" horiz-adv-x="419" 
d="M405 190q-3 -44 -15 -81t-34.5 -64t-56.5 -42t-80 -15q-62 0 -102 20t-63 56t-32.5 85.5t-9.5 108.5q0 131 54.5 204t160.5 73q92 0 136 -50t44 -160q0 -21 -1 -43.5t-4 -47.5h-212q0 -9 -0.5 -16.5t-0.5 -13.5q0 -39 8.5 -56t26.5 -17q17 0 22.5 19.5t4.5 49.5zM244 331
q1 7 1 13.5v11.5q-1 27 -8.5 35t-16.5 8q-15 0 -22.5 -15t-8.5 -53h55z" />
    <glyph glyph-name="f" unicode="f" horiz-adv-x="306" 
d="M1 523h50v31q0 66 16.5 105t41.5 58.5t55 25t58 5.5q34 0 64.5 -6.5t42.5 -11.5l-21 -125q-12 4 -24 5.5t-23 1.5q-18 0 -28.5 -11t-10.5 -38v-40h81v-127h-81v-396h-171v396h-50v127z" />
    <glyph glyph-name="g" unicode="g" horiz-adv-x="435" 
d="M411 523v-471q0 -55 -10 -100.5t-33.5 -78t-62.5 -50.5t-98 -18q-52 0 -87 13.5t-56.5 36t-32 52.5t-13.5 63l164 20q-1 -20 2.5 -38t24.5 -18q18 0 26.5 17.5t8.5 64.5v64h-4q-4 -9 -11 -19t-18.5 -18.5t-26.5 -14t-36 -5.5q-65 0 -101 56t-36 179q0 147 38.5 212
t103.5 65q33 0 53 -13t35 -42h4l10 43h156zM244 271q0 71 -4 98t-22 27q-17 0 -22.5 -26t-5.5 -94q0 -65 5 -89t22 -24q20 0 23.5 24t3.5 84z" />
    <glyph glyph-name="h" unicode="h" horiz-adv-x="445" 
d="M420 0h-172v338q0 27 -4.5 38.5t-16.5 11.5q-17 0 -22.5 -20.5t-5.5 -64.5v-303h-172v734h171v-267h3q5 10 12.5 22t19.5 22t29.5 17t41.5 7q33 0 55 -11.5t35.5 -32.5t19.5 -51.5t6 -68.5v-371z" />
    <glyph glyph-name="i" unicode="i" horiz-adv-x="225" 
d="M27 734h171v-154h-171v154zM27 523h171v-523h-171v523z" />
    <glyph glyph-name="j" unicode="j" horiz-adv-x="225" 
d="M11 -195q-26 0 -49 3.5t-37 7.5l13 127q12 -3 22 -4t19 -1q26 0 37 13.5t11 54.5v517h171v-520q0 -69 -18 -108.5t-45.5 -59.5t-60.5 -25t-63 -5zM25 734h175v-154h-175v154z" />
    <glyph glyph-name="k" unicode="k" horiz-adv-x="473" 
d="M198 348l85 175h191l-131 -184l137 -339h-187l-65 189l-30 -44v-145h-171v734h171v-386z" />
    <glyph glyph-name="l" unicode="l" horiz-adv-x="226" 
d="M199 0h-172v734h172v-734z" />
    <glyph glyph-name="m" unicode="m" horiz-adv-x="657" 
d="M303 535q43 0 67 -18t35 -54h3q11 27 36.5 49.5t75.5 22.5q36 0 58 -12t33.5 -32.5t15.5 -49t4 -61.5v-380h-171v339q0 23 -3 36t-17 13q-23 0 -23 -43v-345h-175v339q0 27 -3 38t-15 11q-16 0 -20.5 -19.5t-4.5 -50.5v-318h-172v523h153l5 -68h2q14 34 39.5 57t76.5 23z
" />
    <glyph glyph-name="n" unicode="n" horiz-adv-x="446" 
d="M421 0h-172v339q0 26 -4.5 37.5t-16.5 11.5q-17 0 -23 -20.5t-6 -65.5v-302h-172v523h154l4 -67h3q4 11 11.5 24.5t20.5 25.5t33 20.5t50 8.5q65 0 91.5 -42t26.5 -119v-374z" />
    <glyph glyph-name="o" unicode="o" horiz-adv-x="441" 
d="M213 -12q-107 0 -154 67.5t-47 204.5q0 140 55.5 207.5t161.5 67.5q110 0 155 -66t45 -199q0 -143 -52.5 -212.5t-163.5 -69.5zM222 128q9 0 14.5 5.5t9 21t4.5 42.5t1 71q0 39 -1.5 63t-4.5 37.5t-8.5 18.5t-14.5 5t-15.5 -5.5t-10 -19.5t-5 -39t-1.5 -65t1 -66
t4.5 -41.5t9.5 -21.5t17 -6z" />
    <glyph glyph-name="p" unicode="p" horiz-adv-x="442" 
d="M27 -183v706h152l4 -60h3q12 28 37.5 50t70.5 22q31 0 56 -12t42.5 -41.5t26.5 -80t9 -127.5q0 -78 -10 -132.5t-28.5 -88.5t-45 -49.5t-59.5 -15.5q-34 0 -54 16t-30 35h-4v-222h-170zM195 265q0 -41 1 -67t4 -42t8.5 -22t15.5 -6q7 0 12 5.5t8 21t4.5 43t1.5 71.5
q0 37 -1 61.5t-4 38.5t-8.5 19.5t-13.5 5.5q-20 0 -24 -30t-4 -99z" />
    <glyph glyph-name="q" unicode="q" horiz-adv-x="438" 
d="M413 523v-706h-169v236h-4q-4 -10 -11 -21.5t-18.5 -21t-27.5 -16t-38 -6.5q-31 0 -55 13.5t-41 44.5t-26 81t-9 123q0 84 11 139t30.5 87.5t46.5 45.5t59 13q31 0 52 -17t32 -38h4l10 43h154zM247 261q0 71 -3.5 103t-21.5 32q-8 0 -13.5 -5t-9 -20.5t-5 -44t-1.5 -75.5
q0 -38 1.5 -62t4.5 -37.5t8 -18.5t13 -5q18 0 22.5 29.5t4.5 103.5z" />
    <glyph glyph-name="r" unicode="r" horiz-adv-x="418" 
d="M235 297q5 53 2 71.5t-14 18.5q-7 0 -11.5 -4.5t-7.5 -16.5t-4 -33.5t-1 -55.5v-277h-172v523h154l4 -67h3q5 16 13.5 30t21.5 25t32.5 17.5t46.5 6.5q69 0 93.5 -56t13.5 -169z" />
    <glyph glyph-name="s" unicode="s" horiz-adv-x="391" 
d="M229 353q0 23 -5.5 37.5t-20.5 14.5q-20 0 -20 -21q0 -18 15 -29.5t37 -22t48 -22.5t48 -31t37 -46.5t15 -69.5q0 -47 -15 -80t-40.5 -54t-60 -31t-73.5 -10q-89 0 -134 44t-50 124l153 15q0 -59 31 -59q19 0 19 25q0 18 -14.5 30t-36.5 22.5t-47 23t-47 31.5t-36.5 47.5
t-14.5 72.5q0 43 15.5 75t42 53.5t60.5 32t71 10.5q78 0 122.5 -37t47.5 -128z" />
    <glyph glyph-name="t" unicode="t" horiz-adv-x="320" 
d="M1 523h50v95l171 39v-134h81v-126h-81v-204q0 -45 10 -57.5t32 -12.5q6 0 15.5 2t22.5 5l16 -124q-12 -5 -41 -11.5t-66 -6.5q-26 0 -54.5 6t-52 25t-38.5 53t-15 91v234h-50v126z" />
    <glyph glyph-name="u" unicode="u" horiz-adv-x="445" 
d="M27 523h171v-340q0 -22 4 -35t18 -13q20 0 24.5 22.5t4.5 67.5v298h172v-523h-153l-5 67h-3q-5 -12 -13 -25.5t-21 -25.5t-32.5 -20t-49.5 -8q-34 0 -56.5 11t-36 31t-19 49.5t-5.5 67.5v376z" />
    <glyph glyph-name="v" unicode="v" horiz-adv-x="434" 
d="M111 0l-120 523h191l37 -344h4l38 344h182l-113 -523h-219z" />
    <glyph glyph-name="w" unicode="w" horiz-adv-x="692" 
d="M87 0l-93 523h172l33 -370h6l44 370h203l46 -370h6l31 370h164l-86 -523h-219l-45 365h-4l-44 -365h-214z" />
    <glyph glyph-name="x" unicode="x" horiz-adv-x="445" 
d="M-9 0l134 266l-128 257h183l46 -140h4l46 140h174l-125 -262l129 -261h-183l-49 138h-4l-44 -138h-183z" />
    <glyph glyph-name="y" unicode="y" horiz-adv-x="434" 
d="M299 -23q-15 -55 -34.5 -89t-44.5 -52.5t-56 -24.5t-68 -6q-12 0 -25.5 1.5t-26.5 3.5t-23 5t-15 5l15 122q13 -4 27 -6t22 -2q27 0 42 13t23 51l4 21l-148 504h193l36 -335h5l36 335h183z" />
    <glyph glyph-name="z" unicode="z" horiz-adv-x="373" 
d="M21 523h335v-134l-139 -240h146v-149h-351v136l143 240h-134v147z" />
    <glyph glyph-name="braceleft" unicode="{" horiz-adv-x="335" 
d="M95 631q0 42 13.5 70t40.5 45t67.5 25t95.5 11l7 -66q-14 -3 -22 -9.5t-12 -17t-4.5 -24.5t-0.5 -31v-159q0 -62 -36 -101.5t-106 -51.5v-2q67 -2 104.5 -39t37.5 -100v-156q0 -17 0.5 -31t4 -24.5t12 -17t23.5 -9.5l-9 -72q-47 2 -86.5 8.5t-68 21.5t-45 40.5
t-16.5 64.5v167q0 16 -2.5 34.5t-11 33.5t-24 25t-40.5 10v83q25 3 40.5 14t24 26.5t11 34.5t2.5 38v159z" />
    <glyph glyph-name="bar" unicode="|" horiz-adv-x="256" 
d="M221 760v-1000h-185v1000h185z" />
    <glyph glyph-name="braceright" unicode="}" horiz-adv-x="335" 
d="M240 472q0 -19 2.5 -38t11 -34.5t23.5 -26.5t41 -14v-83q-26 0 -41 -10t-23.5 -25t-11 -33.5t-2.5 -34.5v-167q0 -39 -16.5 -64.5t-45 -40.5t-68.5 -21.5t-86 -8.5l-9 72q15 3 23.5 9.5t12 17t4 24.5t0.5 31v156q0 63 37.5 100t104.5 39v2q-70 12 -106 51.5t-36 101.5
v159q0 34 -5.5 55.5t-33.5 26.5l7 66q55 -3 95.5 -11t67.5 -25t40.5 -45t13.5 -70v-159z" />
    <glyph glyph-name="asciitilde" unicode="~" 
d="M58 227q10 72 40 105.5t76 33.5q20 0 38.5 -3.5t45.5 -14.5q10 -3 24 -8.5t28 -5.5q11 0 17.5 7.5t10.5 26.5l104 -25q-6 -59 -30.5 -98t-73.5 -39q-26 0 -48 6t-39 13q-19 6 -34 11.5t-25 5.5q-12 0 -20 -8t-13 -36z" />
    <glyph glyph-name="uni00A0" unicode="&#xa0;" horiz-adv-x="157" 
 />
    <glyph glyph-name="exclamdown" unicode="&#xa1;" horiz-adv-x="314" 
d="M233 309l25 -516h-202l31 516h146zM83 527h154v-170h-154v170z" />
    <glyph glyph-name="cent" unicode="&#xa2;" horiz-adv-x="442" 
d="M151 0v93q-36 12 -60 36t-38 57.5t-20 76.5t-6 93q0 205 125 256v84h158v-76q116 -34 109 -208l-156 -12q1 27 -1 44t-6 26t-9 12t-11 3q-7 0 -13 -3.5t-10 -17t-6 -39t-2 -70.5q0 -42 2 -67.5t5.5 -40t9.5 -19t15 -4.5q12 0 20 17t8 65l154 -10q-2 -91 -32 -138t-77 -64
v-94h-159z" />
    <glyph glyph-name="sterling" unicode="&#xa3;" horiz-adv-x="451" 
d="M33 423h56q-16 26 -29.5 57.5t-13.5 78.5q0 91 52.5 140t147.5 49q57 0 96 -19t62 -52t30 -78.5t0 -98.5l-161 12q3 27 2 44t-5 26t-10 12.5t-12 3.5q-15 0 -21 -10.5t-6 -23.5q0 -20 6 -38t15 -35t20 -33.5t20 -34.5h106v-122h-82q-6 -40 -29 -74.5t-61 -69.5h206v-157
h-386v145q27 23 45.5 42.5t30.5 37.5t17.5 36t5.5 38v2h-102v122z" />
    <glyph glyph-name="yen" unicode="&#xa5;" horiz-adv-x="490" 
d="M334 315v-63h95v-103h-95v-149h-174v149h-101v103h101v63h-101v103h69l-131 316h194l57 -254h2l55 254h188l-129 -316h65v-103h-95z" />
    <glyph glyph-name="brokenbar" unicode="&#xa6;" horiz-adv-x="256" 
d="M36 205h185v-445h-185v445zM221 760v-445h-185v445h185z" />
    <glyph glyph-name="section" unicode="&#xa7;" horiz-adv-x="552" 
d="M45 232q0 49 22 90.5t67 79.5q-26 25 -44 59t-18 83q0 39 13.5 74t41 61t70 41t99.5 15q93 0 149 -50.5t61 -156.5l-173 -16q-2 39 -11 59t-29 20q-13 0 -21 -8.5t-8 -27.5q0 -24 18 -40.5t45.5 -31.5t59 -30.5t59 -37t45.5 -51.5t18 -74q0 -50 -23 -89.5t-68 -79.5
q28 -26 46 -60.5t18 -82.5q0 -39 -13.5 -74t-40.5 -61t-68.5 -41t-97.5 -15q-95 0 -152 52t-62 156l173 17q2 -40 11 -60t29 -20q29 0 29 35q0 24 -18 41t-45.5 31.5t-59 30t-59 37t-45.5 51.5t-18 74zM216 272q0 -28 26.5 -45.5t72.5 -39.5q24 32 24 66q0 26 -26.5 43.5
t-73.5 39.5q-23 -30 -23 -64z" />
    <glyph glyph-name="dieresis" unicode="&#xa8;" 
d="M97 735h127v-142h-127v142zM275 735h126v-142h-126v142z" />
    <glyph glyph-name="copyright" unicode="&#xa9;" horiz-adv-x="717" 
d="M686 350q0 -82 -23.5 -149t-67 -115t-104 -74t-133.5 -26q-81 0 -142 26t-102.5 72t-62 110t-20.5 139q0 88 25.5 155.5t70 113.5t104 69.5t128.5 23.5q76 0 136.5 -23.5t103 -67.5t65 -108.5t22.5 -145.5zM360 74q113 0 170.5 69t57.5 200q0 135 -61.5 200t-167.5 65
q-52 0 -94.5 -17.5t-72.5 -51.5t-46.5 -85t-16.5 -118q0 -128 58 -195t173 -67zM512 298q-11 -77 -53 -112.5t-101 -35.5q-41 0 -70 13.5t-48 38.5t-28 59t-9 76q0 87 40.5 141.5t121.5 54.5q64 0 101 -39t42 -111l-91 -14q-5 38 -15 58.5t-40 20.5t-44.5 -26.5t-14.5 -88.5
q0 -48 13 -73.5t46 -25.5q17 0 27.5 7t17.5 18t11 26t7 30z" />
    <glyph glyph-name="ordfeminine" unicode="&#xaa;" horiz-adv-x="334" 
d="M322 422q-22 -5 -44 -7t-41.5 1.5t-34.5 13.5t-22 28q-9 -17 -28 -32t-52 -15q-26 0 -42.5 7.5t-26.5 19.5t-14 28t-4 33q0 32 12.5 51t33.5 29.5t48 16t56 10.5v9q0 10 -2 24t-11 14q-13 0 -10 -27l-112 -9q-5 24 -1 47.5t19.5 42t43 30t69.5 11.5q43 0 70 -11
t41.5 -30.5t19.5 -45.5t5 -57v-81q0 -12 5 -18t19 -3zM163 543q-11 -2 -19 -7.5t-8 -22.5q0 -16 13 -16q9 0 11.5 6t2.5 17v23z" />
    <glyph glyph-name="guillemotleft" unicode="&#xab;" horiz-adv-x="452" 
d="M332 41l-121 210l120 201l110 -44l-78 -155l77 -165zM136 41l-121 210l120 201l111 -44l-78 -155l77 -165z" />
    <glyph glyph-name="logicalnot" unicode="&#xac;" horiz-adv-x="472" 
d="M263 154v127h-188v126h322v-253h-134z" />
    <glyph glyph-name="uni00AD" unicode="&#xad;" horiz-adv-x="268" 
d="M23 233v134h216v-134h-216z" />
    <glyph glyph-name="registered" unicode="&#xae;" horiz-adv-x="438" 
d="M407 533q0 -47 -14 -84.5t-39 -63.5t-60 -40t-77 -14q-45 0 -80 14.5t-58.5 40.5t-35.5 61.5t-12 78.5q0 48 15 86.5t40.5 64.5t60.5 40t75 14q85 0 135 -53t50 -145zM339 534q0 68 -30.5 102t-88.5 34q-60 0 -90.5 -36.5t-30.5 -106.5q0 -66 30 -101.5t89 -35.5
q60 0 90.5 37t30.5 107zM301 437h-57l-32 74h-10v-74h-51v191h70q40 0 55.5 -15t15.5 -39q0 -37 -33 -51zM213 549q11 0 17 4t6 18q0 11 -6 15t-18 4h-10v-41h11z" />
    <glyph glyph-name="macron" unicode="&#xaf;" 
d="M121 705h259v-110h-259v110z" />
    <glyph glyph-name="degree" unicode="&#xb0;" horiz-adv-x="260" 
d="M128 527q-57 0 -85.5 31.5t-28.5 85.5q0 53 31.5 84.5t88.5 31.5q54 0 83 -31t29 -82q0 -57 -29 -88.5t-89 -31.5zM128 598q13 0 19 10t6 36q0 27 -7.5 35t-16.5 8q-3 0 -7 -1t-7.5 -5t-6 -13t-2.5 -24q0 -28 5.5 -37t16.5 -9z" />
    <glyph glyph-name="plusminus" unicode="&#xb1;" horiz-adv-x="472" 
d="M299 281v-95h-126v95h-98v126h98v98h126v-98h98v-126h-98zM75 0v126h322v-126h-322z" />
    <glyph glyph-name="uni00B2" unicode="&#xb2;" horiz-adv-x="301" 
d="M277 497v-107h-254q-1 14 -1.5 27t-0.5 26q0 26 4 45q7 37 29.5 70t46.5 62t43 55.5t19 52.5q0 21 -14 21q-9 0 -15 -12t0 -44l-117 -13q-7 34 -2.5 65.5t22 55.5t48 38t75.5 14q61 0 95.5 -29.5t34.5 -91.5q0 -45 -18 -78.5t-41 -60t-44.5 -49.5t-29.5 -47h120z" />
    <glyph glyph-name="uni00B3" unicode="&#xb3;" horiz-adv-x="314" 
d="M85 665q26 1 41 6t22.5 13.5t9.5 19.5t2 25q0 15 -3.5 19.5t-8.5 4.5q-6 0 -11.5 -9.5t0.5 -38.5l-117 -6q-4 30 0 57.5t19 49t44 34.5t74 13q135 0 135 -112q0 -45 -25 -72t-60 -39q54 -14 73.5 -42.5t19.5 -73.5q0 -60 -37.5 -95.5t-116.5 -35.5q-74 0 -105 36.5
t-33 109.5l126 6q1 -32 6 -41t13 -9t10.5 10t2.5 26q0 28 -15 39.5t-59 10.5z" />
    <glyph glyph-name="acute" unicode="&#xb4;" 
d="M383 694l-147 -138l-69 56l114 171z" />
    <glyph glyph-name="uni00B5" unicode="&#xb5;" horiz-adv-x="465" 
d="M38 523h170v-316q0 -37 4 -52.5t20 -15.5t21.5 17t5.5 55v312h169v-523h-127l-15 88q-7 -23 -17 -40.5t-23 -31.5q-14 -15 -30 -25t-32 -15l-2 -3l22 -149h-166v699z" />
    <glyph glyph-name="paragraph" unicode="&#xb6;" horiz-adv-x="553" 
d="M232 204h-1q-103 13 -155.5 79.5t-52.5 184.5q0 54 13 102.5t42 85t74 57.5t110 21h94v-875h-124v345zM394 734h125v-874h-125v874z" />
    <glyph glyph-name="periodcentered" unicode="&#xb7;" horiz-adv-x="237" 
d="M41 416h155v-173h-155v173z" />
    <glyph glyph-name="cedilla" unicode="&#xb8;" 
d="M230 0h59l-23 -48v-1q7 5 17.5 8t23.5 3q38 0 54 -25.5t16 -57.5q0 -50 -31 -78t-76 -28q-39 0 -66.5 17t-42.5 46l52 40q18 -30 42 -30q11 0 17.5 7t6.5 25q0 31 -22 31q-15 0 -24 -14l-40 19z" />
    <glyph glyph-name="uni00B9" unicode="&#xb9;" horiz-adv-x="259" 
d="M8 774q16 5 35.5 13t39 17.5t37.5 20t31 20.5h76v-455h-136v306q-11 -8 -25.5 -13.5t-37.5 -13.5z" />
    <glyph glyph-name="ordmasculine" unicode="&#xba;" horiz-adv-x="342" 
d="M167 411q-72 0 -108 39.5t-36 126.5t40.5 128.5t112.5 41.5q78 0 111 -41t33 -124q0 -91 -39.5 -131t-113.5 -40zM172 508q4 0 7 2t5 9.5t3.5 22t1.5 39.5q0 45 -3.5 56.5t-11.5 11.5q-4 0 -7.5 -2t-6.5 -9.5t-4.5 -21t-1.5 -37.5q0 -25 1.5 -39t4 -21t5.5 -9t7 -2z" />
    <glyph glyph-name="guillemotright" unicode="&#xbb;" horiz-adv-x="452" 
d="M12 88l77 165l-78 155l110 44l120 -201l-121 -210zM207 88l77 165l-78 155l111 44l120 -201l-121 -210z" />
    <glyph glyph-name="onequarter" unicode="&#xbc;" horiz-adv-x="745" 
d="M561 165v162h-3l-54 -162h57zM686 165h41v-99h-41v-66h-125v66h-165v70l125 319h165v-290zM13 663q16 5 35.5 13t39 17.5t37.5 20t31 20.5h76v-455h-136v306q-11 -8 -25.5 -13.5t-37.5 -13.5zM480 760l114 -50l-330 -722l-112 50z" />
    <glyph glyph-name="onehalf" unicode="&#xbd;" horiz-adv-x="745" 
d="M697 108v-107h-254q-1 14 -1.5 27t-0.5 26q0 26 4 45q7 37 29.5 70t46.5 62t43 55.5t19 52.5q0 21 -14 21q-9 0 -15 -12t0 -44l-117 -13q-7 34 -2.5 65.5t22 55.5t48 38t75.5 14q61 0 95.5 -29.5t34.5 -91.5q0 -45 -18 -78.5t-41 -60t-44.5 -49.5t-29.5 -47h120zM-6 663
q16 5 35.5 13t39 17.5t37.5 20t31 20.5h76v-455h-136v306q-11 -8 -25.5 -13.5t-37.5 -13.5zM450 760l114 -50l-330 -722l-112 50z" />
    <glyph glyph-name="threequarters" unicode="&#xbe;" horiz-adv-x="745" 
d="M582 165v162h-3l-54 -162h57zM707 165h41v-99h-41v-66h-125v66h-165v70l125 319h165v-290zM89 553q26 1 41 6t22.5 13.5t9.5 19.5t2 25q0 15 -3.5 19.5t-8.5 4.5q-6 0 -11.5 -9.5t0.5 -38.5l-117 -6q-4 30 0 57.5t19 49t44 34.5t74 13q135 0 135 -112q0 -45 -25 -72
t-60 -39q54 -14 73.5 -42.5t19.5 -73.5q0 -60 -37.5 -95.5t-116.5 -35.5q-74 0 -105 36.5t-33 109.5l126 6q1 -32 6 -41t13 -9t10.5 10t2.5 26q0 28 -15 39.5t-59 10.5zM509 760l114 -50l-330 -722l-112 50z" />
    <glyph glyph-name="questiondown" unicode="&#xbf;" horiz-adv-x="472" 
d="M217 4q0 -46 5 -60t19 -14q6 0 11 2.5t9 11.5t6.5 27t2.5 48l178 -12q0 -47 -10 -88.5t-34 -72.5t-65 -49t-104 -18q-109 0 -160 57.5t-51 164.5q0 58 11 98t32 67t50.5 43t67.5 27l10 77h154l10 -179q-44 -2 -71.5 -10t-43.5 -23.5t-21.5 -39.5t-5.5 -57zM350 357h-155
v170h155v-170z" />
    <glyph glyph-name="Agrave" unicode="&#xc0;" horiz-adv-x="529" 
d="M374 734l160 -734h-190l-24 145h-119l-24 -145h-182l150 734h229zM263 538h-6l-33 -242h71zM220 956l160 -120l-47 -77l-186 79z" />
    <glyph glyph-name="Aacute" unicode="&#xc1;" horiz-adv-x="529" 
d="M374 734l160 -734h-190l-24 145h-119l-24 -145h-182l150 734h229zM263 538h-6l-33 -242h71zM376 838l-186 -78l-43 78l161 118z" />
    <glyph glyph-name="Acircumflex" unicode="&#xc2;" horiz-adv-x="529" 
d="M374 734l160 -734h-190l-24 145h-119l-24 -145h-182l150 734h229zM263 538h-6l-33 -242h71zM307 926l107 -117l-48 -53l-109 66l-107 -66l-49 53l108 117h98z" />
    <glyph glyph-name="Atilde" unicode="&#xc3;" horiz-adv-x="529" 
d="M374 734l160 -734h-190l-24 145h-119l-24 -145h-182l150 734h229zM263 538h-6l-33 -242h71zM112 792q7 61 30 91.5t59 30.5q15 0 31 -4t31 -8.5t28.5 -8t23.5 -3.5q11 0 18 5t10 22l70 -9q-9 -61 -28 -94t-61 -33q-16 0 -32.5 4t-32 8.5t-29 8.5t-23.5 4q-20 0 -26 -27z
" />
    <glyph glyph-name="Adieresis" unicode="&#xc4;" horiz-adv-x="529" 
d="M374 734l160 -734h-190l-24 145h-119l-24 -145h-182l150 734h229zM263 538h-6l-33 -242h71zM106 917h127v-142h-127v142zM284 917h126v-142h-126v142z" />
    <glyph glyph-name="Aring" unicode="&#xc5;" horiz-adv-x="529" 
d="M374 734l160 -734h-190l-24 145h-119l-24 -145h-182l150 734h229zM263 538h-6l-33 -242h71zM262 756q-63 0 -89.5 28t-26.5 72q0 41 30 70.5t90 29.5q61 0 87.5 -28.5t26.5 -68.5q0 -46 -27.5 -74.5t-90.5 -28.5zM262 815q9 0 15.5 9.5t6.5 32.5q0 20 -5.5 28t-15.5 8
q-9 0 -16 -7t-7 -30t5.5 -32t16.5 -9z" />
    <glyph glyph-name="AE" unicode="&#xc6;" horiz-adv-x="733" 
d="M678 290h-167v-133h206v-157h-384v290h-97l-64 -290h-182l183 734h526v-157h-188v-142h167v-145zM266 434h67v143h-37z" />
    <glyph glyph-name="Ccedilla" unicode="&#xc7;" horiz-adv-x="494" 
d="M220 -11q-60 4 -98.5 29.5t-61.5 71.5t-32 113.5t-9 157.5q0 193 59.5 290t191.5 97q59 0 99.5 -17.5t65.5 -51.5t36 -85.5t10 -118.5l-174 -14q0 41 -2 67.5t-7 42t-13.5 21.5t-21.5 6q-16 0 -27 -11.5t-18 -38.5t-10 -72t-3 -112q0 -70 2 -115t7.5 -71.5t16 -36.5
t28.5 -10q26 0 33.5 33.5t6.5 98.5l172 -10q-1 -130 -48 -192.5t-144 -70.5l-18 -38l1 -1q6 5 16.5 8t23.5 3q38 0 54 -25.5t16 -57.5q0 -50 -31 -78t-76 -28q-39 0 -66.5 17t-41.5 46l51 40q18 -30 42 -30q11 0 18 7t7 25q0 31 -23 31q-15 0 -24 -14l-39 19z" />
    <glyph glyph-name="Egrave" unicode="&#xc8;" horiz-adv-x="430" 
d="M157 956l160 -120l-47 -77l-186 79zM376 296h-170v-139h208v-157h-387v734h369v-157h-190v-128h170v-153z" />
    <glyph glyph-name="Eacute" unicode="&#xc9;" horiz-adv-x="430" 
d="M329 838l-186 -78l-43 78l161 118zM376 296h-170v-139h208v-157h-387v734h369v-157h-190v-128h170v-153z" />
    <glyph glyph-name="Ecircumflex" unicode="&#xca;" horiz-adv-x="430" 
d="M376 296h-170v-139h208v-157h-387v734h369v-157h-190v-128h170v-153zM266 926l107 -117l-48 -53l-109 66l-107 -66l-49 53l108 117h98z" />
    <glyph glyph-name="Edieresis" unicode="&#xcb;" horiz-adv-x="430" 
d="M63 917h127v-142h-127v142zM241 917h126v-142h-126v142zM376 296h-170v-139h208v-157h-387v734h369v-157h-190v-128h170v-153z" />
    <glyph glyph-name="Igrave" unicode="&#xcc;" horiz-adv-x="342" 
d="M260 131h64v-131h-306v131h64v472h-63v131h304v-131h-63v-472zM115 956l160 -120l-47 -77l-186 79z" />
    <glyph glyph-name="Iacute" unicode="&#xcd;" horiz-adv-x="342" 
d="M260 131h64v-131h-306v131h64v472h-63v131h304v-131h-63v-472zM287 838l-186 -78l-43 78l161 118z" />
    <glyph glyph-name="Icircumflex" unicode="&#xce;" horiz-adv-x="342" 
d="M260 131h64v-131h-306v131h64v472h-63v131h304v-131h-63v-472zM220 926l107 -117l-48 -53l-109 66l-107 -66l-49 53l108 117h98z" />
    <glyph glyph-name="Idieresis" unicode="&#xcf;" horiz-adv-x="342" 
d="M260 131h64v-131h-306v131h64v472h-63v131h304v-131h-63v-472zM19 917h127v-142h-127v142zM197 917h126v-142h-126v142z" />
    <glyph glyph-name="Eth" unicode="&#xd0;" horiz-adv-x="536" 
d="M54 0v303h-45v135h45v296h170q84 0 140.5 -21.5t90.5 -65.5t48.5 -110t14.5 -156q0 -95 -14.5 -166t-49 -119t-91 -72t-141.5 -24h-168zM247 152q23 0 39 9.5t26.5 34.5t15.5 68t5 109q0 69 -6 110.5t-17 64t-27 29.5t-35 7h-16v-146h56v-135h-56v-151h15z" />
    <glyph glyph-name="Ntilde" unicode="&#xd1;" horiz-adv-x="540" 
d="M133 792q7 61 30 91.5t59 30.5q15 0 31 -4t31 -8.5t28.5 -8t23.5 -3.5q11 0 18 5t10 22l70 -9q-9 -61 -28 -94t-61 -33q-16 0 -32.5 4t-32 8.5t-29 8.5t-23.5 4q-20 0 -26 -27zM319 0l-119 388h-3v-388h-169v734h205l107 -382h4v382h168v-734h-193z" />
    <glyph glyph-name="Ograve" unicode="&#xd2;" horiz-adv-x="518" 
d="M208 956l160 -120l-47 -77l-186 79zM252 -12q-68 0 -113 24.5t-71.5 72t-37.5 118t-11 163.5q0 188 59.5 285t189.5 97q69 0 114 -24t71.5 -70.5t36.5 -115t10 -158.5q0 -195 -56.5 -293.5t-191.5 -98.5zM259 135q14 0 24.5 9.5t17 35.5t10 72.5t3.5 120.5q0 69 -3 112
t-9.5 67t-16.5 32.5t-23 8.5q-15 0 -25.5 -9t-17.5 -34t-10.5 -69t-3.5 -113q0 -74 3 -119.5t9 -71t16.5 -34t25.5 -8.5z" />
    <glyph glyph-name="Oacute" unicode="&#xd3;" horiz-adv-x="518" 
d="M387 838l-186 -78l-43 78l161 118zM252 -12q-68 0 -113 24.5t-71.5 72t-37.5 118t-11 163.5q0 188 59.5 285t189.5 97q69 0 114 -24t71.5 -70.5t36.5 -115t10 -158.5q0 -195 -56.5 -293.5t-191.5 -98.5zM259 135q14 0 24.5 9.5t17 35.5t10 72.5t3.5 120.5q0 69 -3 112
t-9.5 67t-16.5 32.5t-23 8.5q-15 0 -25.5 -9t-17.5 -34t-10.5 -69t-3.5 -113q0 -74 3 -119.5t9 -71t16.5 -34t25.5 -8.5z" />
    <glyph glyph-name="Ocircumflex" unicode="&#xd4;" horiz-adv-x="518" 
d="M252 -12q-68 0 -113 24.5t-71.5 72t-37.5 118t-11 163.5q0 188 59.5 285t189.5 97q69 0 114 -24t71.5 -70.5t36.5 -115t10 -158.5q0 -195 -56.5 -293.5t-191.5 -98.5zM259 135q14 0 24.5 9.5t17 35.5t10 72.5t3.5 120.5q0 69 -3 112t-9.5 67t-16.5 32.5t-23 8.5
q-15 0 -25.5 -9t-17.5 -34t-10.5 -69t-3.5 -113q0 -74 3 -119.5t9 -71t16.5 -34t25.5 -8.5zM312 926l107 -117l-48 -53l-109 66l-107 -66l-49 53l108 117h98z" />
    <glyph glyph-name="Otilde" unicode="&#xd5;" horiz-adv-x="518" 
d="M112 792q7 61 30 91.5t59 30.5q15 0 31 -4t31 -8.5t28.5 -8t23.5 -3.5q11 0 18 5t10 22l70 -9q-9 -61 -28 -94t-61 -33q-16 0 -32.5 4t-32 8.5t-29 8.5t-23.5 4q-20 0 -26 -27zM252 -12q-68 0 -113 24.5t-71.5 72t-37.5 118t-11 163.5q0 188 59.5 285t189.5 97
q69 0 114 -24t71.5 -70.5t36.5 -115t10 -158.5q0 -195 -56.5 -293.5t-191.5 -98.5zM259 135q14 0 24.5 9.5t17 35.5t10 72.5t3.5 120.5q0 69 -3 112t-9.5 67t-16.5 32.5t-23 8.5q-15 0 -25.5 -9t-17.5 -34t-10.5 -69t-3.5 -113q0 -74 3 -119.5t9 -71t16.5 -34t25.5 -8.5z
" />
    <glyph glyph-name="Odieresis" unicode="&#xd6;" horiz-adv-x="518" 
d="M112 917h127v-142h-127v142zM290 917h126v-142h-126v142zM252 -12q-68 0 -113 24.5t-71.5 72t-37.5 118t-11 163.5q0 188 59.5 285t189.5 97q69 0 114 -24t71.5 -70.5t36.5 -115t10 -158.5q0 -195 -56.5 -293.5t-191.5 -98.5zM259 135q14 0 24.5 9.5t17 35.5t10 72.5
t3.5 120.5q0 69 -3 112t-9.5 67t-16.5 32.5t-23 8.5q-15 0 -25.5 -9t-17.5 -34t-10.5 -69t-3.5 -113q0 -74 3 -119.5t9 -71t16.5 -34t25.5 -8.5z" />
    <glyph glyph-name="multiply" unicode="&#xd7;" 
d="M339 344l69 -68l-89 -91l-70 69l-69 -69l-89 90l68 69l-68 69l89 90l69 -70l70 70l89 -90z" />
    <glyph glyph-name="Oslash" unicode="&#xd8;" horiz-adv-x="516" 
d="M250 -12h-13.5t-13.5 2l-24 -74l-147 48l31 96q-35 47 -49.5 123.5t-14.5 182.5q0 188 59.5 284.5t188.5 96.5q7 0 13.5 -0.5t12.5 -1.5l23 71l147 -45l-30 -96q36 -46 50 -119.5t14 -175.5q0 -98 -13.5 -171t-42.5 -122.5t-76.5 -74t-114.5 -24.5zM258 135
q14 0 24.5 10.5t17 37t10 72.5t3.5 118q0 69 -3.5 112t-10 67t-16 32.5t-22.5 8.5q-14 0 -24.5 -9t-17.5 -34t-10.5 -69t-3.5 -113q0 -70 2.5 -115t8.5 -71.5t16.5 -36.5t25.5 -10z" />
    <glyph glyph-name="Ugrave" unicode="&#xd9;" horiz-adv-x="509" 
d="M203 956l160 -120l-47 -77l-186 79zM306 734h178v-495q0 -53 -10 -98.5t-36.5 -79.5t-72.5 -53.5t-117 -19.5t-114.5 20.5t-67.5 55.5t-32.5 81.5t-8.5 99.5v489h178v-449q0 -40 0.5 -68.5t5.5 -46.5t15.5 -26.5t30.5 -8.5q18 0 28 8t15 25.5t6.5 46t1.5 69.5v450z" />
    <glyph glyph-name="Uacute" unicode="&#xda;" horiz-adv-x="509" 
d="M390 838l-186 -78l-43 78l161 118zM306 734h178v-495q0 -53 -10 -98.5t-36.5 -79.5t-72.5 -53.5t-117 -19.5t-114.5 20.5t-67.5 55.5t-32.5 81.5t-8.5 99.5v489h178v-449q0 -40 0.5 -68.5t5.5 -46.5t15.5 -26.5t30.5 -8.5q18 0 28 8t15 25.5t6.5 46t1.5 69.5v450z" />
    <glyph glyph-name="Ucircumflex" unicode="&#xdb;" horiz-adv-x="509" 
d="M306 734h178v-495q0 -53 -10 -98.5t-36.5 -79.5t-72.5 -53.5t-117 -19.5t-114.5 20.5t-67.5 55.5t-32.5 81.5t-8.5 99.5v489h178v-449q0 -40 0.5 -68.5t5.5 -46.5t15.5 -26.5t30.5 -8.5q18 0 28 8t15 25.5t6.5 46t1.5 69.5v450zM307 926l107 -117l-48 -53l-109 66
l-107 -66l-49 53l108 117h98z" />
    <glyph glyph-name="Udieresis" unicode="&#xdc;" horiz-adv-x="509" 
d="M107 917h127v-142h-127v142zM285 917h126v-142h-126v142zM306 734h178v-495q0 -53 -10 -98.5t-36.5 -79.5t-72.5 -53.5t-117 -19.5t-114.5 20.5t-67.5 55.5t-32.5 81.5t-8.5 99.5v489h178v-449q0 -40 0.5 -68.5t5.5 -46.5t15.5 -26.5t30.5 -8.5q18 0 28 8t15 25.5t6.5 46
t1.5 69.5v450z" />
    <glyph glyph-name="Yacute" unicode="&#xdd;" horiz-adv-x="503" 
d="M340 0h-174v273l-175 461h196l67 -283h3l66 283h189l-172 -456v-278zM392 838l-186 -78l-43 78l161 118z" />
    <glyph glyph-name="Thorn" unicode="&#xde;" horiz-adv-x="478" 
d="M217 0h-178v734h178v-127h44q101 0 155 -50.5t54 -168.5q0 -47 -9 -91t-33.5 -78t-68 -55t-113.5 -21h-29v-143zM231 295q33 0 46.5 20t13.5 62q0 44 -14 59t-37 15h-23v-156h14z" />
    <glyph glyph-name="germandbls" unicode="&#xdf;" horiz-adv-x="537" 
d="M199 0h-172v486q0 69 17.5 119t50.5 81.5t80 46.5t106 15q57 0 96 -15t64 -40t36 -58.5t11 -69.5q-1 -46 -11 -86t-23 -72q-5 2 -12 3.5t-15 1.5q-16 0 -27 -9.5t-11 -29.5q0 -27 16.5 -44.5t38.5 -34.5q15 -11 30.5 -23t28 -28.5t20.5 -38.5t8 -52q0 -32 -10.5 -61.5
t-31.5 -52.5t-52 -36.5t-72 -13.5q-53 0 -89.5 16t-53.5 36l59 94q11 -8 25.5 -14.5t29.5 -6.5q11 0 21 5t10 25q0 19 -16.5 33.5t-39.5 31.5q-15 10 -30 23t-27 30t-20 39t-8 52q0 31 8.5 54.5t22.5 41t31 29t35 18.5q3 13 5.5 27.5t2.5 28.5q0 28 -13 46t-42 18
q-24 0 -39 -9t-23.5 -26t-11.5 -41t-3 -53v-486z" />
    <glyph glyph-name="agrave" unicode="&#xe0;" horiz-adv-x="422" 
d="M419 6q-16 -6 -36 -10t-41 -4q-35 0 -63 14.5t-39 51.5q-12 -30 -38.5 -50t-71.5 -20q-37 0 -61 12.5t-38 33t-19.5 45.5t-5.5 51q0 53 19 85t49 51t67 27t73 13v33q0 28 -3.5 46t-19.5 18q-10 0 -14 -8.5t-4 -19.5q0 -8 2 -16.5t4 -15.5l-154 -17q-3 13 -4 25t-1 24
q0 33 10.5 62t32 51t55.5 34.5t82 12.5q60 0 97 -16.5t57 -46t26.5 -71t6.5 -90.5v-157q0 -17 3.5 -26.5t16.5 -9.5q6 0 10 1zM214 202q-22 -2 -34 -12.5t-12 -39.5q0 -13 4.5 -25.5t18.5 -12.5t18.5 12.5t4.5 31.5v46zM169 782l112 -169l-67 -56l-153 135z" />
    <glyph glyph-name="aacute" unicode="&#xe1;" horiz-adv-x="422" 
d="M419 6q-16 -6 -36 -10t-41 -4q-35 0 -63 14.5t-39 51.5q-12 -30 -38.5 -50t-71.5 -20q-37 0 -61 12.5t-38 33t-19.5 45.5t-5.5 51q0 53 19 85t49 51t67 27t73 13v33q0 28 -3.5 46t-19.5 18q-10 0 -14 -8.5t-4 -19.5q0 -8 2 -16.5t4 -15.5l-154 -17q-3 13 -4 25t-1 24
q0 33 10.5 62t32 51t55.5 34.5t82 12.5q60 0 97 -16.5t57 -46t26.5 -71t6.5 -90.5v-157q0 -17 3.5 -26.5t16.5 -9.5q6 0 10 1zM214 202q-22 -2 -34 -12.5t-12 -39.5q0 -13 4.5 -25.5t18.5 -12.5t18.5 12.5t4.5 31.5v46zM343 694l-147 -138l-69 56l114 171z" />
    <glyph glyph-name="acircumflex" unicode="&#xe2;" horiz-adv-x="422" 
d="M419 6q-16 -6 -36 -10t-41 -4q-35 0 -63 14.5t-39 51.5q-12 -30 -38.5 -50t-71.5 -20q-37 0 -61 12.5t-38 33t-19.5 45.5t-5.5 51q0 53 19 85t49 51t67 27t73 13v33q0 28 -3.5 46t-19.5 18q-10 0 -14 -8.5t-4 -19.5q0 -8 2 -16.5t4 -15.5l-154 -17q-3 13 -4 25t-1 24
q0 33 10.5 62t32 51t55.5 34.5t82 12.5q60 0 97 -16.5t57 -46t26.5 -71t6.5 -90.5v-157q0 -17 3.5 -26.5t16.5 -9.5q6 0 10 1zM214 202q-22 -2 -34 -12.5t-12 -39.5q0 -13 4.5 -25.5t18.5 -12.5t18.5 12.5t4.5 31.5v46zM253 751l99 -143l-66 -51l-84 76l-83 -76l-62 48
l94 146h102z" />
    <glyph glyph-name="atilde" unicode="&#xe3;" horiz-adv-x="422" 
d="M419 6q-16 -6 -36 -10t-41 -4q-35 0 -63 14.5t-39 51.5q-12 -30 -38.5 -50t-71.5 -20q-37 0 -61 12.5t-38 33t-19.5 45.5t-5.5 51q0 53 19 85t49 51t67 27t73 13v33q0 28 -3.5 46t-19.5 18q-10 0 -14 -8.5t-4 -19.5q0 -8 2 -16.5t4 -15.5l-154 -17q-3 13 -4 25t-1 24
q0 33 10.5 62t32 51t55.5 34.5t82 12.5q60 0 97 -16.5t57 -46t26.5 -71t6.5 -90.5v-157q0 -17 3.5 -26.5t16.5 -9.5q6 0 10 1zM214 202q-22 -2 -34 -12.5t-12 -39.5q0 -13 4.5 -25.5t18.5 -12.5t18.5 12.5t4.5 31.5v46zM60 597q7 62 30 92t59 30q15 0 31 -3.5t31 -8t28.5 -8
t23.5 -3.5q11 0 18 5t10 22l70 -9q-9 -61 -28 -94.5t-61 -33.5q-16 0 -32.5 4t-32 9t-29 9t-23.5 4q-20 0 -26 -28z" />
    <glyph glyph-name="adieresis" unicode="&#xe4;" horiz-adv-x="422" 
d="M419 6q-16 -6 -36 -10t-41 -4q-35 0 -63 14.5t-39 51.5q-12 -30 -38.5 -50t-71.5 -20q-37 0 -61 12.5t-38 33t-19.5 45.5t-5.5 51q0 53 19 85t49 51t67 27t73 13v33q0 28 -3.5 46t-19.5 18q-10 0 -14 -8.5t-4 -19.5q0 -8 2 -16.5t4 -15.5l-154 -17q-3 13 -4 25t-1 24
q0 33 10.5 62t32 51t55.5 34.5t82 12.5q60 0 97 -16.5t57 -46t26.5 -71t6.5 -90.5v-157q0 -17 3.5 -26.5t16.5 -9.5q6 0 10 1zM214 202q-22 -2 -34 -12.5t-12 -39.5q0 -13 4.5 -25.5t18.5 -12.5t18.5 12.5t4.5 31.5v46zM51 735h127v-142h-127v142zM229 735h126v-142h-126
v142z" />
    <glyph glyph-name="aring" unicode="&#xe5;" horiz-adv-x="422" 
d="M419 6q-16 -6 -36 -10t-41 -4q-35 0 -63 14.5t-39 51.5q-12 -30 -38.5 -50t-71.5 -20q-37 0 -61 12.5t-38 33t-19.5 45.5t-5.5 51q0 53 19 85t49 51t67 27t73 13v33q0 28 -3.5 46t-19.5 18q-10 0 -14 -8.5t-4 -19.5q0 -8 2 -16.5t4 -15.5l-154 -17q-3 13 -4 25t-1 24
q0 33 10.5 62t32 51t55.5 34.5t82 12.5q60 0 97 -16.5t57 -46t26.5 -71t6.5 -90.5v-157q0 -17 3.5 -26.5t16.5 -9.5q6 0 10 1zM214 202q-22 -2 -34 -12.5t-12 -39.5q0 -13 4.5 -25.5t18.5 -12.5t18.5 12.5t4.5 31.5v46zM209 569q-58 0 -82.5 27.5t-24.5 69.5q0 40 28 68.5
t83 28.5q57 0 81.5 -27.5t24.5 -66.5q0 -44 -25.5 -72t-84.5 -28zM209 627q9 0 15 9t6 31q0 20 -5.5 27.5t-14.5 7.5q-8 0 -14.5 -6.5t-6.5 -29.5t5 -31t15 -8z" />
    <glyph glyph-name="ae" unicode="&#xe6;" horiz-adv-x="615" 
d="M601 190q-2 -61 -19 -100.5t-42.5 -62t-58 -31t-65.5 -8.5q-60 0 -96.5 21t-56.5 55q-18 -40 -53 -58t-76 -18q-37 0 -61 12.5t-38.5 33t-20.5 45.5t-6 51q0 53 19 85t49 51t67 27t73 13v33q0 28 -3.5 46t-19.5 18q-14 0 -17 -17t5 -43l-154 -17q-8 43 -2.5 81t27 66.5
t58.5 45t92 16.5q38 0 64.5 -11t48.5 -32q20 20 50 31.5t68 11.5q100 0 141.5 -70.5t24.5 -230.5h-213q-1 -57 6.5 -80t27.5 -23q14 0 21.5 15t5.5 54zM440 331q2 22 0.5 35t-5 20.5t-8.5 10t-10 2.5q-15 0 -22.5 -15t-8.5 -53h54zM216 202q-22 -2 -33.5 -12.5t-11.5 -39.5
q0 -13 4 -25.5t18 -12.5t18.5 12.5t4.5 31.5v46z" />
    <glyph glyph-name="ccedilla" unicode="&#xe7;" horiz-adv-x="424" 
d="M182 -9q-48 6 -80 28t-50.5 57t-26.5 82.5t-8 103.5q0 134 54.5 203.5t160.5 69.5q94 0 137.5 -52.5t38.5 -164.5l-155 -12q1 27 -1.5 44t-6 26t-9 12t-10.5 3q-8 0 -13.5 -3.5t-10 -17t-6.5 -39t-2 -70.5q0 -42 2 -67.5t5.5 -40t9.5 -19t15 -4.5q13 0 21 17.5t7 64.5
l155 -10q-1 -59 -15 -99t-36.5 -64.5t-53 -36t-64.5 -13.5l-18 -37l1 -1q7 5 17 8t23 3q38 0 54.5 -25.5t16.5 -57.5q0 -50 -31.5 -78t-76.5 -28q-38 0 -66 17t-42 46l51 40q19 -30 43 -30q11 0 17.5 7t6.5 25q0 31 -23 31q-15 0 -23 -14l-40 19z" />
    <glyph glyph-name="egrave" unicode="&#xe8;" horiz-adv-x="419" 
d="M405 190q-3 -44 -15 -81t-34.5 -64t-56.5 -42t-80 -15q-62 0 -102 20t-63 56t-32.5 85.5t-9.5 108.5q0 131 54.5 204t160.5 73q92 0 136 -50t44 -160q0 -21 -1 -43.5t-4 -47.5h-212q0 -9 -0.5 -16.5t-0.5 -13.5q0 -39 8.5 -56t26.5 -17q17 0 22.5 19.5t4.5 49.5zM244 331
q1 7 1 13.5v11.5q-1 27 -8.5 35t-16.5 8q-15 0 -22.5 -15t-8.5 -53h55zM209 782l112 -169l-67 -56l-153 135z" />
    <glyph glyph-name="eacute" unicode="&#xe9;" horiz-adv-x="419" 
d="M363 694l-147 -138l-69 56l114 171zM405 190q-3 -44 -15 -81t-34.5 -64t-56.5 -42t-80 -15q-62 0 -102 20t-63 56t-32.5 85.5t-9.5 108.5q0 131 54.5 204t160.5 73q92 0 136 -50t44 -160q0 -21 -1 -43.5t-4 -47.5h-212q0 -9 -0.5 -16.5t-0.5 -13.5q0 -39 8.5 -56
t26.5 -17q17 0 22.5 19.5t4.5 49.5zM244 331q1 7 1 13.5v11.5q-1 27 -8.5 35t-16.5 8q-15 0 -22.5 -15t-8.5 -53h55z" />
    <glyph glyph-name="ecircumflex" unicode="&#xea;" horiz-adv-x="419" 
d="M280 751l99 -143l-66 -51l-84 76l-83 -76l-62 48l94 146h102zM405 190q-3 -44 -15 -81t-34.5 -64t-56.5 -42t-80 -15q-62 0 -102 20t-63 56t-32.5 85.5t-9.5 108.5q0 131 54.5 204t160.5 73q92 0 136 -50t44 -160q0 -21 -1 -43.5t-4 -47.5h-212q0 -9 -0.5 -16.5
t-0.5 -13.5q0 -39 8.5 -56t26.5 -17q17 0 22.5 19.5t4.5 49.5zM244 331q1 7 1 13.5v11.5q-1 27 -8.5 35t-16.5 8q-15 0 -22.5 -15t-8.5 -53h55z" />
    <glyph glyph-name="edieresis" unicode="&#xeb;" horiz-adv-x="419" 
d="M77 735h127v-142h-127v142zM255 735h126v-142h-126v142zM405 190q-3 -44 -15 -81t-34.5 -64t-56.5 -42t-80 -15q-62 0 -102 20t-63 56t-32.5 85.5t-9.5 108.5q0 131 54.5 204t160.5 73q92 0 136 -50t44 -160q0 -21 -1 -43.5t-4 -47.5h-212q0 -9 -0.5 -16.5t-0.5 -13.5
q0 -39 8.5 -56t26.5 -17q17 0 22.5 19.5t4.5 49.5zM244 331q1 7 1 13.5v11.5q-1 27 -8.5 35t-16.5 8q-15 0 -22.5 -15t-8.5 -53h55z" />
    <glyph glyph-name="igrave" unicode="&#xec;" horiz-adv-x="229" 
d="M27 523h174v-523h-174v523zM92 782l112 -169l-67 -56l-153 135z" />
    <glyph glyph-name="iacute" unicode="&#xed;" horiz-adv-x="229" 
d="M246 694l-147 -138l-69 56l114 171zM27 523h174v-523h-174v523z" />
    <glyph glyph-name="icircumflex" unicode="&#xee;" horiz-adv-x="229" 
d="M163 751l99 -143l-66 -51l-84 76l-83 -76l-62 48l94 146h102zM27 523h174v-523h-174v523z" />
    <glyph glyph-name="idieresis" unicode="&#xef;" horiz-adv-x="229" 
d="M-40 735h127v-142h-127v142zM138 735h126v-142h-126v142zM27 523h174v-523h-174v523z" />
    <glyph glyph-name="eth" unicode="&#xf0;" horiz-adv-x="441" 
d="M325 639q47 -75 75.5 -162.5t28.5 -197.5q0 -150 -53 -220.5t-162 -70.5q-107 0 -154 66t-47 208q0 48 7 95t26 85t50.5 61.5t81.5 23.5q19 0 44 -9t48 -38l3 2q-15 29 -35 59.5t-43 60.5l-110 -29l-27 92l71 18q-3 1 -9.5 7.5t-13.5 14t-13.5 13.5t-9.5 8l151 29
q2 -1 6.5 -6t9.5 -11t9 -11.5t6 -6.5l103 29l28 -91zM222 128q9 0 14.5 5.5t9 21t4.5 42.5t1 71q0 39 -1.5 63t-4.5 37.5t-8.5 18.5t-14.5 5t-15.5 -5.5t-10 -19.5t-5 -39t-1.5 -65t1 -66t4.5 -41.5t9.5 -21.5t17 -6z" />
    <glyph glyph-name="ntilde" unicode="&#xf1;" horiz-adv-x="446" 
d="M421 0h-172v339q0 26 -4.5 37.5t-16.5 11.5q-17 0 -23 -20.5t-6 -65.5v-302h-172v523h154l4 -67h3q4 11 11.5 24.5t20.5 25.5t33 20.5t50 8.5q65 0 91.5 -42t26.5 -119v-374zM80 597q7 62 30 92t59 30q15 0 31 -3.5t31 -8t28.5 -8t23.5 -3.5q11 0 18 5t10 22l70 -9
q-9 -61 -28 -94.5t-61 -33.5q-16 0 -32.5 4t-32 9t-29 9t-23.5 4q-20 0 -26 -28z" />
    <glyph glyph-name="ograve" unicode="&#xf2;" horiz-adv-x="441" 
d="M213 -12q-107 0 -154 67.5t-47 204.5q0 140 55.5 207.5t161.5 67.5q110 0 155 -66t45 -199q0 -143 -52.5 -212.5t-163.5 -69.5zM222 128q9 0 14.5 5.5t9 21t4.5 42.5t1 71q0 39 -1.5 63t-4.5 37.5t-8.5 18.5t-14.5 5t-15.5 -5.5t-10 -19.5t-5 -39t-1.5 -65t1 -66
t4.5 -41.5t9.5 -21.5t17 -6zM207 782l112 -169l-67 -56l-153 135z" />
    <glyph glyph-name="oacute" unicode="&#xf3;" horiz-adv-x="441" 
d="M361 694l-147 -138l-69 56l114 171zM213 -12q-107 0 -154 67.5t-47 204.5q0 140 55.5 207.5t161.5 67.5q110 0 155 -66t45 -199q0 -143 -52.5 -212.5t-163.5 -69.5zM222 128q9 0 14.5 5.5t9 21t4.5 42.5t1 71q0 39 -1.5 63t-4.5 37.5t-8.5 18.5t-14.5 5t-15.5 -5.5
t-10 -19.5t-5 -39t-1.5 -65t1 -66t4.5 -41.5t9.5 -21.5t17 -6z" />
    <glyph glyph-name="ocircumflex" unicode="&#xf4;" horiz-adv-x="441" 
d="M278 751l99 -143l-66 -51l-84 76l-83 -76l-62 48l94 146h102zM213 -12q-107 0 -154 67.5t-47 204.5q0 140 55.5 207.5t161.5 67.5q110 0 155 -66t45 -199q0 -143 -52.5 -212.5t-163.5 -69.5zM222 128q9 0 14.5 5.5t9 21t4.5 42.5t1 71q0 39 -1.5 63t-4.5 37.5t-8.5 18.5
t-14.5 5t-15.5 -5.5t-10 -19.5t-5 -39t-1.5 -65t1 -66t4.5 -41.5t9.5 -21.5t17 -6z" />
    <glyph glyph-name="otilde" unicode="&#xf5;" horiz-adv-x="441" 
d="M213 -12q-107 0 -154 67.5t-47 204.5q0 140 55.5 207.5t161.5 67.5q110 0 155 -66t45 -199q0 -143 -52.5 -212.5t-163.5 -69.5zM222 128q9 0 14.5 5.5t9 21t4.5 42.5t1 71q0 39 -1.5 63t-4.5 37.5t-8.5 18.5t-14.5 5t-15.5 -5.5t-10 -19.5t-5 -39t-1.5 -65t1 -66
t4.5 -41.5t9.5 -21.5t17 -6zM78 597q7 62 30 92t59 30q15 0 31 -3.5t31 -8t28.5 -8t23.5 -3.5q11 0 18 5t10 22l70 -9q-9 -61 -28 -94.5t-61 -33.5q-16 0 -32.5 4t-32 9t-29 9t-23.5 4q-20 0 -26 -28z" />
    <glyph glyph-name="odieresis" unicode="&#xf6;" horiz-adv-x="441" 
d="M75 735h127v-142h-127v142zM253 735h126v-142h-126v142zM213 -12q-107 0 -154 67.5t-47 204.5q0 140 55.5 207.5t161.5 67.5q110 0 155 -66t45 -199q0 -143 -52.5 -212.5t-163.5 -69.5zM222 128q9 0 14.5 5.5t9 21t4.5 42.5t1 71q0 39 -1.5 63t-4.5 37.5t-8.5 18.5
t-14.5 5t-15.5 -5.5t-10 -19.5t-5 -39t-1.5 -65t1 -66t4.5 -41.5t9.5 -21.5t17 -6z" />
    <glyph glyph-name="divide" unicode="&#xf7;" horiz-adv-x="472" 
d="M77 281v126h323v-126h-323zM168 558h142v-124h-142v124zM168 252h142v-124h-142v124z" />
    <glyph glyph-name="oslash" unicode="&#xf8;" horiz-adv-x="441" 
d="M429 270q0 -143 -52.5 -212.5t-163.5 -69.5h-9t-8 1l-30 -72l-120 49l27 70q-32 33 -46.5 88t-14.5 136q0 140 55.5 207.5t161.5 67.5h8.5t8.5 -1l30 70l120 -47l-26 -68q32 -32 45.5 -86.5t13.5 -132.5zM222 128q9 0 14.5 5.5t9 21t4.5 42.5t1 71q0 39 -1.5 63
t-4.5 37.5t-8.5 18.5t-14.5 5t-15.5 -5.5t-10 -19.5t-5 -39t-1.5 -65t1 -66t4.5 -41.5t9.5 -21.5t17 -6z" />
    <glyph glyph-name="ugrave" unicode="&#xf9;" horiz-adv-x="445" 
d="M27 523h171v-340q0 -22 4 -35t18 -13q20 0 24.5 22.5t4.5 67.5v298h172v-523h-153l-5 67h-3q-5 -12 -13 -25.5t-21 -25.5t-32.5 -20t-49.5 -8q-34 0 -56.5 11t-36 31t-19 49.5t-5.5 67.5v376zM206 782l112 -169l-67 -56l-153 135z" />
    <glyph glyph-name="uacute" unicode="&#xfa;" horiz-adv-x="445" 
d="M362 694l-147 -138l-69 56l114 171zM27 523h171v-340q0 -22 4 -35t18 -13q20 0 24.5 22.5t4.5 67.5v298h172v-523h-153l-5 67h-3q-5 -12 -13 -25.5t-21 -25.5t-32.5 -20t-49.5 -8q-34 0 -56.5 11t-36 31t-19 49.5t-5.5 67.5v376z" />
    <glyph glyph-name="ucircumflex" unicode="&#xfb;" horiz-adv-x="445" 
d="M277 751l99 -143l-66 -51l-84 76l-83 -76l-62 48l94 146h102zM27 523h171v-340q0 -22 4 -35t18 -13q20 0 24.5 22.5t4.5 67.5v298h172v-523h-153l-5 67h-3q-5 -12 -13 -25.5t-21 -25.5t-32.5 -20t-49.5 -8q-34 0 -56.5 11t-36 31t-19 49.5t-5.5 67.5v376z" />
    <glyph glyph-name="udieresis" unicode="&#xfc;" horiz-adv-x="445" 
d="M74 735h127v-142h-127v142zM252 735h126v-142h-126v142zM27 523h171v-340q0 -22 4 -35t18 -13q20 0 24.5 22.5t4.5 67.5v298h172v-523h-153l-5 67h-3q-5 -12 -13 -25.5t-21 -25.5t-32.5 -20t-49.5 -8q-34 0 -56.5 11t-36 31t-19 49.5t-5.5 67.5v376z" />
    <glyph glyph-name="yacute" unicode="&#xfd;" horiz-adv-x="434" 
d="M299 -23q-15 -55 -34.5 -89t-44.5 -52.5t-56 -24.5t-68 -6q-12 0 -25.5 1.5t-26.5 3.5t-23 5t-15 5l15 122q13 -4 27 -6t22 -2q27 0 42 13t23 51l4 21l-148 504h193l36 -335h5l36 335h183zM356 694l-147 -138l-69 56l114 171z" />
    <glyph glyph-name="thorn" unicode="&#xfe;" horiz-adv-x="440" 
d="M28 -183v917h163v-271h3q12 28 34.5 50t66.5 22q31 0 56 -12t42.5 -41.5t26.5 -80t9 -127.5q0 -78 -10 -132.5t-28.5 -88.5t-45 -49.5t-59.5 -15.5q-34 0 -54 16t-31 35h-4v-222h-169zM196 265q0 -41 0.5 -67t3.5 -42t9 -22t16 -6q7 0 12 5.5t8 21t4.5 43t1.5 71.5
q0 37 -1 61.5t-4 38.5t-8.5 19.5t-13.5 5.5q-20 0 -24 -30t-4 -99z" />
    <glyph glyph-name="ydieresis" unicode="&#xff;" horiz-adv-x="434" 
d="M299 -23q-15 -55 -34.5 -89t-44.5 -52.5t-56 -24.5t-68 -6q-12 0 -25.5 1.5t-26.5 3.5t-23 5t-15 5l15 122q13 -4 27 -6t22 -2q27 0 42 13t23 51l4 21l-148 504h193l36 -335h5l36 335h183zM72 735h127v-142h-127v142zM250 735h126v-142h-126v142z" />
    <glyph glyph-name="Amacron" unicode="&#x100;" horiz-adv-x="529" 
d="M374 734l160 -734h-190l-24 145h-119l-24 -145h-182l150 734h229zM263 538h-6l-33 -242h71zM130 891h262v-109h-262v109z" />
    <glyph glyph-name="amacron" unicode="&#x101;" horiz-adv-x="422" 
d="M419 6q-16 -6 -36 -10t-41 -4q-35 0 -63 14.5t-39 51.5q-12 -30 -38.5 -50t-71.5 -20q-37 0 -61 12.5t-38 33t-19.5 45.5t-5.5 51q0 53 19 85t49 51t67 27t73 13v33q0 28 -3.5 46t-19.5 18q-10 0 -14 -8.5t-4 -19.5q0 -8 2 -16.5t4 -15.5l-154 -17q-3 13 -4 25t-1 24
q0 33 10.5 62t32 51t55.5 34.5t82 12.5q60 0 97 -16.5t57 -46t26.5 -71t6.5 -90.5v-157q0 -17 3.5 -26.5t16.5 -9.5q6 0 10 1zM214 202q-22 -2 -34 -12.5t-12 -39.5q0 -13 4.5 -25.5t18.5 -12.5t18.5 12.5t4.5 31.5v46zM75 705h259v-110h-259v110z" />
    <glyph glyph-name="Abreve" unicode="&#x102;" horiz-adv-x="529" 
d="M374 734l160 -734h-190l-24 145h-119l-24 -145h-182l150 734h229zM263 538h-6l-33 -242h71zM193 920q4 -29 21 -41.5t44 -12.5q26 0 44.5 9.5t27.5 45.5l76 -16q-2 -30 -13 -56.5t-29.5 -46t-45 -30.5t-59.5 -11q-29 0 -55 9t-46 27t-32.5 45.5t-13.5 65.5z" />
    <glyph glyph-name="abreve" unicode="&#x103;" horiz-adv-x="422" 
d="M419 6q-16 -6 -36 -10t-41 -4q-35 0 -63 14.5t-39 51.5q-12 -30 -38.5 -50t-71.5 -20q-37 0 -61 12.5t-38 33t-19.5 45.5t-5.5 51q0 53 19 85t49 51t67 27t73 13v33q0 28 -3.5 46t-19.5 18q-10 0 -14 -8.5t-4 -19.5q0 -8 2 -16.5t4 -15.5l-154 -17q-3 13 -4 25t-1 24
q0 33 10.5 62t32 51t55.5 34.5t82 12.5q60 0 97 -16.5t57 -46t26.5 -71t6.5 -90.5v-157q0 -17 3.5 -26.5t16.5 -9.5q6 0 10 1zM214 202q-22 -2 -34 -12.5t-12 -39.5q0 -13 4.5 -25.5t18.5 -12.5t18.5 12.5t4.5 31.5v46zM148 739q5 -36 21.5 -51t41.5 -15q21 0 38.5 13.5
t25.5 52.5l79 -9q-5 -76 -42.5 -118t-104.5 -42q-29 0 -54 9.5t-44 29t-30 49.5t-12 71z" />
    <glyph glyph-name="Aogonek" unicode="&#x104;" horiz-adv-x="529" 
d="M374 734l160 -734h-48q-17 -21 -30.5 -44t-13.5 -42q0 -16 13 -16q11 0 27 23l52 -41q-17 -33 -48.5 -54t-75.5 -21q-35 0 -59 17t-24 53q0 37 21 66t57 59h-61l-24 145h-119l-24 -145h-182l150 734h229zM263 538h-6l-33 -242h71z" />
    <glyph glyph-name="aogonek" unicode="&#x105;" horiz-adv-x="422" 
d="M419 6q-21 -3 -38 -12.5t-29 -22.5t-18.5 -27.5t-6.5 -29.5q0 -16 13 -16q11 0 27 23l52 -41q-17 -33 -48.5 -54t-75.5 -21q-35 0 -59 17t-24 53q0 37 21.5 66.5t57.5 58.5q-18 8 -31.5 21.5t-19.5 36.5q-12 -30 -38.5 -50t-71.5 -20q-37 0 -61 12.5t-38 33t-19.5 45.5
t-5.5 51q0 53 19 85t49 51t67 27t73 13v33q0 28 -3.5 46t-19.5 18q-10 0 -14 -8.5t-4 -19.5q0 -8 2 -16.5t4 -15.5l-154 -17q-3 13 -4 25t-1 24q0 33 10.5 62t32 51t55.5 34.5t82 12.5q60 0 97 -16.5t57 -46t26.5 -71t6.5 -90.5v-157q0 -17 3.5 -26.5t16.5 -9.5q6 0 10 1z
M214 202q-22 -2 -34 -12.5t-12 -39.5q0 -13 4.5 -25.5t18.5 -12.5t18.5 12.5t4.5 31.5v46z" />
    <glyph glyph-name="Cacute" unicode="&#x106;" horiz-adv-x="494" 
d="M259 131q26 0 33.5 33.5t6.5 98.5l172 -10q0 -141 -54 -203t-168 -62q-68 0 -112 23t-70.5 69.5t-37 116.5t-10.5 164q0 193 59.5 290t191.5 97q59 0 99.5 -17.5t65.5 -51.5t36 -85.5t10 -118.5l-174 -14q0 41 -2 67.5t-7 42t-13.5 21.5t-21.5 6q-16 0 -27 -11.5
t-18 -38.5t-10 -72t-3 -112q0 -70 2 -115t7.5 -71.5t16 -36.5t28.5 -10zM395 838l-186 -78l-43 78l161 118z" />
    <glyph glyph-name="cacute" unicode="&#x107;" horiz-adv-x="423" 
d="M349 694l-147 -138l-69 56l114 171zM252 306q2 45 -5 65t-21 20q-8 0 -13.5 -3.5t-10 -17t-6.5 -39t-2 -70.5q0 -42 2 -67.5t5.5 -40t9.5 -19t15 -4.5q14 0 21 22.5t7 59.5l155 -10q-2 -63 -17.5 -104.5t-41 -65.5t-59.5 -34t-72 -10q-60 0 -99 20t-62 56t-32.5 86.5
t-9.5 111.5q0 134 54.5 203.5t160.5 69.5q53 0 88 -16.5t55 -46t27.5 -69t6.5 -85.5z" />
    <glyph glyph-name="Ccircumflex" unicode="&#x108;" horiz-adv-x="494" 
d="M259 131q26 0 33.5 33.5t6.5 98.5l172 -10q0 -141 -54 -203t-168 -62q-68 0 -112 23t-70.5 69.5t-37 116.5t-10.5 164q0 193 59.5 290t191.5 97q59 0 99.5 -17.5t65.5 -51.5t36 -85.5t10 -118.5l-174 -14q0 41 -2 67.5t-7 42t-13.5 21.5t-21.5 6q-16 0 -27 -11.5
t-18 -38.5t-10 -72t-3 -112q0 -70 2 -115t7.5 -71.5t16 -36.5t28.5 -10zM320 926l107 -117l-48 -53l-109 66l-107 -66l-49 53l108 117h98z" />
    <glyph glyph-name="ccircumflex" unicode="&#x109;" horiz-adv-x="423" 
d="M272 751l99 -143l-66 -51l-84 76l-83 -76l-62 48l94 146h102zM252 306q2 45 -5 65t-21 20q-8 0 -13.5 -3.5t-10 -17t-6.5 -39t-2 -70.5q0 -42 2 -67.5t5.5 -40t9.5 -19t15 -4.5q14 0 21 22.5t7 59.5l155 -10q-2 -63 -17.5 -104.5t-41 -65.5t-59.5 -34t-72 -10
q-60 0 -99 20t-62 56t-32.5 86.5t-9.5 111.5q0 134 54.5 203.5t160.5 69.5q53 0 88 -16.5t55 -46t27.5 -69t6.5 -85.5z" />
    <glyph glyph-name="Cdotaccent" unicode="&#x10a;" horiz-adv-x="486" 
d="M187 926h171v-154h-171v154zM259 131q26 0 33.5 33.5t6.5 98.5l172 -10q0 -141 -54 -203t-168 -62q-68 0 -112 23t-70.5 69.5t-37 116.5t-10.5 164q0 193 59.5 290t191.5 97q59 0 99.5 -17.5t65.5 -51.5t36 -85.5t10 -118.5l-174 -14q0 41 -2 67.5t-7 42t-13.5 21.5
t-21.5 6q-16 0 -27 -11.5t-18 -38.5t-10 -72t-3 -112q0 -70 2 -115t7.5 -71.5t16 -36.5t28.5 -10z" />
    <glyph glyph-name="cdotaccent" unicode="&#x10b;" horiz-adv-x="424" 
d="M252 306q2 45 -5 65t-21 20q-8 0 -13.5 -3.5t-10 -17t-6.5 -39t-2 -70.5q0 -42 2 -67.5t5.5 -40t9.5 -19t15 -4.5q14 0 21 22.5t7 59.5l155 -10q-2 -63 -17.5 -104.5t-41 -65.5t-59.5 -34t-72 -10q-60 0 -99 20t-62 56t-32.5 86.5t-9.5 111.5q0 134 54.5 203.5
t160.5 69.5q53 0 88 -16.5t55 -46t27.5 -69t6.5 -85.5zM139 734h171v-154h-171v154z" />
    <glyph glyph-name="Ccaron" unicode="&#x10c;" horiz-adv-x="494" 
d="M259 131q26 0 33.5 33.5t6.5 98.5l172 -10q0 -141 -54 -203t-168 -62q-68 0 -112 23t-70.5 69.5t-37 116.5t-10.5 164q0 193 59.5 290t191.5 97q59 0 99.5 -17.5t65.5 -51.5t36 -85.5t10 -118.5l-174 -14q0 41 -2 67.5t-7 42t-13.5 21.5t-21.5 6q-16 0 -27 -11.5
t-18 -38.5t-10 -72t-3 -112q0 -70 2 -115t7.5 -71.5t16 -36.5t28.5 -10zM222 773l-104 112l49 52l103 -59l104 59l49 -52l-104 -112h-97z" />
    <glyph glyph-name="ccaron" unicode="&#x10d;" horiz-adv-x="423" 
d="M175 566l-94 146l61 48l83 -77l85 77l61 -48l-99 -146h-97zM252 306q2 45 -5 65t-21 20q-8 0 -13.5 -3.5t-10 -17t-6.5 -39t-2 -70.5q0 -42 2 -67.5t5.5 -40t9.5 -19t15 -4.5q14 0 21 22.5t7 59.5l155 -10q-2 -63 -17.5 -104.5t-41 -65.5t-59.5 -34t-72 -10q-60 0 -99 20
t-62 56t-32.5 86.5t-9.5 111.5q0 134 54.5 203.5t160.5 69.5q53 0 88 -16.5t55 -46t27.5 -69t6.5 -85.5z" />
    <glyph glyph-name="Dcaron" unicode="&#x10e;" horiz-adv-x="510" 
d="M166 760l-104 112l49 52l103 -59l104 59l49 -52l-104 -112h-97zM28 0v734h170q84 0 140.5 -21.5t90.5 -65.5t48.5 -110t14.5 -156q0 -95 -14.5 -166t-49 -119t-91 -72t-141.5 -24h-168zM221 152q23 0 39 9.5t26.5 34.5t15.5 68t5 109q0 69 -6 110.5t-17 64t-27 29.5
t-35 7h-16v-432h15z" />
    <glyph glyph-name="dcaron" unicode="&#x10f;" 
d="M573 734l-50 -213l-84 5v208h134zM415 734v-734h-150l-11 56h-3q-3 -10 -10.5 -22t-19 -22t-27 -17t-36.5 -7q-37 0 -64 14t-45 45.5t-26.5 81.5t-8.5 121q0 149 36.5 217t106.5 68q36 0 54 -16t29 -36h4v251h171zM247 261q0 71 -3.5 103t-21.5 32q-8 0 -13.5 -4.5
t-9 -20t-5 -44t-1.5 -76.5q0 -38 1.5 -62t4.5 -37.5t8 -18.5t13 -5q18 0 22.5 29.5t4.5 103.5z" />
    <glyph glyph-name="Dcroat" unicode="&#x110;" horiz-adv-x="536" 
d="M54 0v303h-45v135h45v296h170q84 0 140.5 -21.5t90.5 -65.5t48.5 -110t14.5 -156q0 -95 -14.5 -166t-49 -119t-91 -72t-141.5 -24h-168zM247 152q23 0 39 9.5t26.5 34.5t15.5 68t5 109q0 69 -6 110.5t-17 64t-27 29.5t-35 7h-16v-146h56v-135h-56v-151h15z" />
    <glyph glyph-name="dcroat" unicode="&#x111;" horiz-adv-x="439" 
d="M415 734v-45h36v-113h-36v-576h-150l-11 56h-3q-3 -10 -10.5 -22t-19 -22t-27 -17t-36.5 -7q-37 0 -64 14t-45 45.5t-26.5 81.5t-8.5 121q0 149 36.5 217t106.5 68q36 0 54 -16t29 -36h4v93h-106v113h106v45h171zM247 261q0 71 -3.5 103t-21.5 32q-8 0 -13.5 -4.5t-9 -20
t-5 -44t-1.5 -76.5q0 -38 1.5 -62t4.5 -37.5t8 -18.5t13 -5q18 0 22.5 29.5t4.5 103.5z" />
    <glyph glyph-name="Emacron" unicode="&#x112;" horiz-adv-x="430" 
d="M73 891h262v-109h-262v109zM376 296h-170v-139h208v-157h-387v734h369v-157h-190v-128h170v-153z" />
    <glyph glyph-name="emacron" unicode="&#x113;" horiz-adv-x="419" 
d="M405 190q-3 -44 -15 -81t-34.5 -64t-56.5 -42t-80 -15q-62 0 -102 20t-63 56t-32.5 85.5t-9.5 108.5q0 131 54.5 204t160.5 73q92 0 136 -50t44 -160q0 -21 -1 -43.5t-4 -47.5h-212q0 -9 -0.5 -16.5t-0.5 -13.5q0 -39 8.5 -56t26.5 -17q17 0 22.5 19.5t4.5 49.5zM244 331
q1 7 1 13.5v11.5q-1 27 -8.5 35t-16.5 8q-15 0 -22.5 -15t-8.5 -53h55zM92 705h259v-110h-259v110z" />
    <glyph glyph-name="Ebreve" unicode="&#x114;" horiz-adv-x="430" 
d="M148 920q4 -29 21 -41.5t44 -12.5q26 0 44.5 9.5t27.5 45.5l76 -16q-2 -30 -13 -56.5t-29.5 -46t-45 -30.5t-59.5 -11q-29 0 -55 9t-46 27t-32.5 45.5t-13.5 65.5zM376 296h-170v-139h208v-157h-387v734h369v-157h-190v-128h170v-153z" />
    <glyph glyph-name="ebreve" unicode="&#x115;" horiz-adv-x="419" 
d="M405 190q-3 -44 -15 -81t-34.5 -64t-56.5 -42t-80 -15q-62 0 -102 20t-63 56t-32.5 85.5t-9.5 108.5q0 131 54.5 204t160.5 73q92 0 136 -50t44 -160q0 -21 -1 -43.5t-4 -47.5h-212q0 -9 -0.5 -16.5t-0.5 -13.5q0 -39 8.5 -56t26.5 -17q17 0 22.5 19.5t4.5 49.5zM244 331
q1 7 1 13.5v11.5q-1 27 -8.5 35t-16.5 8q-15 0 -22.5 -15t-8.5 -53h55zM159 739q5 -36 21.5 -51t41.5 -15q21 0 38.5 13.5t25.5 52.5l79 -9q-5 -76 -42.5 -118t-104.5 -42q-29 0 -54 9.5t-44 29t-30 49.5t-12 71z" />
    <glyph glyph-name="Edotaccent" unicode="&#x116;" horiz-adv-x="430" 
d="M128 926h171v-154h-171v154zM376 296h-170v-139h208v-157h-387v734h369v-157h-190v-128h170v-153z" />
    <glyph glyph-name="edotaccent" unicode="&#x117;" horiz-adv-x="419" 
d="M405 190q-3 -44 -15 -81t-34.5 -64t-56.5 -42t-80 -15q-62 0 -102 20t-63 56t-32.5 85.5t-9.5 108.5q0 131 54.5 204t160.5 73q92 0 136 -50t44 -160q0 -21 -1 -43.5t-4 -47.5h-212q0 -9 -0.5 -16.5t-0.5 -13.5q0 -39 8.5 -56t26.5 -17q17 0 22.5 19.5t4.5 49.5zM244 331
q1 7 1 13.5v11.5q-1 27 -8.5 35t-16.5 8q-15 0 -22.5 -15t-8.5 -53h55zM140 734h171v-154h-171v154z" />
    <glyph glyph-name="Eogonek" unicode="&#x118;" horiz-adv-x="430" 
d="M376 296h-170v-139h208v-157h-48q-17 -21 -30.5 -44t-13.5 -42q0 -16 13 -16q11 0 27 23l52 -41q-17 -33 -48.5 -54t-75.5 -21q-35 0 -59 17t-24 53q0 37 21 66t57 59h-258v734h369v-157h-190v-128h170v-153z" />
    <glyph glyph-name="eogonek" unicode="&#x119;" horiz-adv-x="419" 
d="M405 190q-4 -55 -23.5 -97.5t-48.5 -74.5q-9 -11 -19.5 -24.5t-19 -28t-14 -28t-5.5 -23.5q0 -16 13 -16q11 0 27 23l52 -41q-17 -33 -48.5 -54t-75.5 -21q-35 0 -59 17t-24 53q0 33 17 60t47 53h-5q-62 0 -102 20t-63 56t-32.5 85.5t-9.5 108.5q0 131 54.5 204t160.5 73
q92 0 136 -50t44 -160q0 -21 -1 -43.5t-4 -47.5h-212q0 -9 -0.5 -16.5t-0.5 -13.5q0 -39 8.5 -56t26.5 -17q17 0 22.5 19.5t4.5 49.5zM244 331q1 7 1 13.5v11.5q-1 27 -8.5 35t-16.5 8q-15 0 -22.5 -15t-8.5 -53h55z" />
    <glyph glyph-name="Ecaron" unicode="&#x11a;" horiz-adv-x="430" 
d="M162 760l-104 112l49 52l103 -59l104 59l49 -52l-104 -112h-97zM376 296h-170v-139h208v-157h-387v734h369v-157h-190v-128h170v-153z" />
    <glyph glyph-name="ecaron" unicode="&#x11b;" horiz-adv-x="419" 
d="M173 566l-94 146l61 48l83 -77l85 77l61 -48l-99 -146h-97zM405 190q-3 -44 -15 -81t-34.5 -64t-56.5 -42t-80 -15q-62 0 -102 20t-63 56t-32.5 85.5t-9.5 108.5q0 131 54.5 204t160.5 73q92 0 136 -50t44 -160q0 -21 -1 -43.5t-4 -47.5h-212q0 -9 -0.5 -16.5t-0.5 -13.5
q0 -39 8.5 -56t26.5 -17q17 0 22.5 19.5t4.5 49.5zM244 331q1 7 1 13.5v11.5q-1 27 -8.5 35t-16.5 8q-15 0 -22.5 -15t-8.5 -53h55z" />
    <glyph glyph-name="Gcircumflex" unicode="&#x11c;" horiz-adv-x="517" 
d="M278 371h214v-374h-130l-9 55q-24 -34 -56.5 -49t-70.5 -15q-57 0 -96.5 23t-64 70.5t-35.5 119t-11 167.5q0 187 61.5 283.5t197.5 96.5q109 0 156.5 -68t46.5 -203l-175 -14q0 41 -2 67.5t-7 41.5t-13 20.5t-21 5.5q-16 0 -27 -11.5t-18 -38t-10 -70.5t-3 -110
q0 -79 5 -126.5t14.5 -72.5t22.5 -32.5t30 -7.5q20 0 35 13.5t20 56.5v34h-54v138zM321 926l107 -117l-48 -53l-109 66l-107 -66l-49 53l108 117h98z" />
    <glyph glyph-name="gcircumflex" unicode="&#x11d;" horiz-adv-x="435" 
d="M267 751l99 -143l-66 -51l-84 76l-83 -76l-62 48l94 146h102zM411 523v-471q0 -55 -10 -100.5t-33.5 -78t-62.5 -50.5t-98 -18q-52 0 -87 13.5t-56.5 36t-32 52.5t-13.5 63l164 20q-1 -20 2.5 -38t24.5 -18q18 0 26.5 17.5t8.5 64.5v64h-4q-4 -9 -11 -19t-18.5 -18.5
t-26.5 -14t-36 -5.5q-65 0 -101 56t-36 179q0 147 38.5 212t103.5 65q33 0 53 -13t35 -42h4l10 43h156zM244 271q0 71 -4 98t-22 27q-17 0 -22.5 -26t-5.5 -94q0 -65 5 -89t22 -24q20 0 23.5 24t3.5 84z" />
    <glyph glyph-name="Gbreve" unicode="&#x11e;" horiz-adv-x="517" 
d="M205 933q4 -29 21 -41.5t44 -12.5q26 0 44.5 9.5t27.5 45.5l76 -16q-2 -30 -13 -56.5t-29.5 -46t-45 -30.5t-59.5 -11q-29 0 -55 9t-46 27t-32.5 45.5t-13.5 65.5zM278 371h214v-374h-130l-9 55q-24 -34 -56.5 -49t-70.5 -15q-57 0 -96.5 23t-64 70.5t-35.5 119
t-11 167.5q0 187 61.5 283.5t197.5 96.5q109 0 156.5 -68t46.5 -203l-175 -14q0 41 -2 67.5t-7 41.5t-13 20.5t-21 5.5q-16 0 -27 -11.5t-18 -38t-10 -70.5t-3 -110q0 -79 5 -126.5t14.5 -72.5t22.5 -32.5t30 -7.5q20 0 35 13.5t20 56.5v34h-54v138z" />
    <glyph glyph-name="gbreve" unicode="&#x11f;" horiz-adv-x="435" 
d="M411 523v-471q0 -55 -10 -100.5t-33.5 -78t-62.5 -50.5t-98 -18q-52 0 -87 13.5t-56.5 36t-32 52.5t-13.5 63l164 20q-1 -20 2.5 -38t24.5 -18q18 0 26.5 17.5t8.5 64.5v64h-4q-4 -9 -11 -19t-18.5 -18.5t-26.5 -14t-36 -5.5q-65 0 -101 56t-36 179q0 147 38.5 212
t103.5 65q33 0 53 -13t35 -42h4l10 43h156zM244 271q0 71 -4 98t-22 27q-17 0 -22.5 -26t-5.5 -94q0 -65 5 -89t22 -24q20 0 23.5 24t3.5 84zM155 739q5 -36 21.5 -51t41.5 -15q21 0 38.5 13.5t25.5 52.5l79 -9q-5 -76 -42.5 -118t-104.5 -42q-29 0 -54 9.5t-44 29t-30 49.5
t-12 71z" />
    <glyph glyph-name="Gdotaccent" unicode="&#x120;" horiz-adv-x="517" 
d="M186 926h171v-154h-171v154zM278 371h214v-374h-130l-9 55q-24 -34 -56.5 -49t-70.5 -15q-57 0 -96.5 23t-64 70.5t-35.5 119t-11 167.5q0 187 61.5 283.5t197.5 96.5q109 0 156.5 -68t46.5 -203l-175 -14q0 41 -2 67.5t-7 41.5t-13 20.5t-21 5.5q-16 0 -27 -11.5
t-18 -38t-10 -70.5t-3 -110q0 -79 5 -126.5t14.5 -72.5t22.5 -32.5t30 -7.5q20 0 35 13.5t20 56.5v34h-54v138z" />
    <glyph glyph-name="gdotaccent" unicode="&#x121;" horiz-adv-x="435" 
d="M411 523v-471q0 -55 -10 -100.5t-33.5 -78t-62.5 -50.5t-98 -18q-52 0 -87 13.5t-56.5 36t-32 52.5t-13.5 63l164 20q-1 -20 2.5 -38t24.5 -18q18 0 26.5 17.5t8.5 64.5v64h-4q-4 -9 -11 -19t-18.5 -18.5t-26.5 -14t-36 -5.5q-65 0 -101 56t-36 179q0 147 38.5 212
t103.5 65q33 0 53 -13t35 -42h4l10 43h156zM244 271q0 71 -4 98t-22 27q-17 0 -22.5 -26t-5.5 -94q0 -65 5 -89t22 -24q20 0 23.5 24t3.5 84zM134 734h171v-154h-171v154z" />
    <glyph glyph-name="Gcommaaccent" unicode="&#x122;" horiz-adv-x="517" 
d="M278 371h214v-374h-130l-9 55q-24 -34 -56.5 -49t-70.5 -15q-57 0 -96.5 23t-64 70.5t-35.5 119t-11 167.5q0 187 61.5 283.5t197.5 96.5q109 0 156.5 -68t46.5 -203l-175 -14q0 41 -2 67.5t-7 41.5t-13 20.5t-21 5.5q-16 0 -27 -11.5t-18 -38t-10 -70.5t-3 -110
q0 -79 5 -126.5t14.5 -72.5t22.5 -32.5t30 -7.5q20 0 35 13.5t20 56.5v34h-54v138zM201 -44h131v-98l-52 -140l-62 15l22 92h-39v131z" />
    <glyph glyph-name="gcommaaccent" unicode="&#x123;" horiz-adv-x="435" 
d="M281 573h-130v98l51 140l63 -16l-23 -91h39v-131zM411 523v-471q0 -55 -10 -100.5t-33.5 -78t-62.5 -50.5t-98 -18q-52 0 -87 13.5t-56.5 36t-32 52.5t-13.5 63l164 20q-1 -20 2.5 -38t24.5 -18q18 0 26.5 17.5t8.5 64.5v64h-4q-4 -9 -11 -19t-18.5 -18.5t-26.5 -14
t-36 -5.5q-65 0 -101 56t-36 179q0 147 38.5 212t103.5 65q33 0 53 -13t35 -42h4l10 43h156zM244 271q0 71 -4 98t-22 27q-17 0 -22.5 -26t-5.5 -94q0 -65 5 -89t22 -24q20 0 23.5 24t3.5 84z" />
    <glyph glyph-name="Hcircumflex" unicode="&#x124;" horiz-adv-x="512" 
d="M484 0h-179v287h-99v-287h-178v734h178v-281h99v281h179v-734zM308 926l107 -117l-48 -53l-109 66l-107 -66l-49 53l108 117h98z" />
    <glyph glyph-name="hcircumflex" unicode="&#x125;" horiz-adv-x="446" 
d="M420 0h-172v338q0 27 -4.5 38.5t-16.5 11.5q-17 0 -22.5 -20.5t-5.5 -64.5v-303h-172v734h171v-267h3q5 10 12.5 22t19.5 22t29.5 17t41.5 7q33 0 55 -11.5t35.5 -32.5t19.5 -51.5t6 -68.5v-371zM162 916l107 -117l-48 -53l-109 66l-107 -66l-49 53l108 117h98z" />
    <glyph glyph-name="Hbar" unicode="&#x126;" horiz-adv-x="533" 
d="M494 661h41v-135h-41v-526h-178v287h-99v-287h-178v526h-43v135h43v73h178v-73h99v73h178v-73zM316 453v73h-99v-73h99z" />
    <glyph glyph-name="hbar" unicode="&#x127;" horiz-adv-x="446" 
d="M420 0h-172v338q0 27 -4.5 38.5t-16.5 11.5q-17 0 -22.5 -20.5t-5.5 -64.5v-303h-172v576h-39v113h39v45h171v-45h115v-113h-115v-109h3q5 10 12.5 22t19.5 22t29.5 17t41.5 7q33 0 55 -11.5t35.5 -32.5t19.5 -51.5t6 -68.5v-371z" />
    <glyph glyph-name="Itilde" unicode="&#x128;" horiz-adv-x="342" 
d="M260 131h64v-131h-306v131h64v472h-63v131h304v-131h-63v-472zM19 792q7 61 30 91.5t59 30.5q15 0 31 -4t31 -8.5t28.5 -8t23.5 -3.5q11 0 18 5t10 22l70 -9q-9 -61 -28 -94t-61 -33q-16 0 -32.5 4t-32 8.5t-29 8.5t-23.5 4q-20 0 -26 -27z" />
    <glyph glyph-name="itilde" unicode="&#x129;" horiz-adv-x="229" 
d="M27 523h174v-523h-174v523zM-37 597q7 62 30 92t59 30q15 0 31 -3.5t31 -8t28.5 -8t23.5 -3.5q11 0 18 5t10 22l70 -9q-9 -61 -28 -94.5t-61 -33.5q-16 0 -32.5 4t-32 9t-29 9t-23.5 4q-20 0 -26 -28z" />
    <glyph glyph-name="Imacron" unicode="&#x12a;" horiz-adv-x="342" 
d="M260 131h64v-131h-306v131h64v472h-63v131h304v-131h-63v-472zM39 891h262v-109h-262v109z" />
    <glyph glyph-name="imacron" unicode="&#x12b;" horiz-adv-x="229" 
d="M27 523h174v-523h-174v523zM-16 705h259v-110h-259v110z" />
    <glyph glyph-name="Iogonek" unicode="&#x12e;" horiz-adv-x="342" 
d="M260 131h64v-131h-93q-17 -21 -30.5 -44t-13.5 -42q0 -16 13 -16q11 0 27 23l52 -41q-17 -33 -48.5 -54t-75.5 -21q-35 0 -59 17t-24 53q0 37 21 66t57 59h-132v131h64v472h-63v131h304v-131h-63v-472z" />
    <glyph glyph-name="iogonek" unicode="&#x12f;" horiz-adv-x="225" 
d="M27 523h171v-523h-30q-17 -21 -30.5 -44t-13.5 -42q0 -16 13 -16q11 0 27 23l52 -41q-17 -33 -48.5 -54t-75.5 -21q-35 0 -59 17t-24 53q0 37 21 66t57 59h-60v523zM27 734h171v-154h-171v154z" />
    <glyph glyph-name="Idotaccent" unicode="&#x130;" horiz-adv-x="342" 
d="M260 131h64v-131h-306v131h64v472h-63v131h304v-131h-63v-472zM84 926h171v-154h-171v154z" />
    <glyph glyph-name="dotlessi" unicode="&#x131;" horiz-adv-x="229" 
d="M27 523h174v-523h-174v523z" />
    <glyph glyph-name="IJ" unicode="&#x132;" horiz-adv-x="787" 
d="M260 131h64v-131h-306v131h64v472h-63v131h304v-131h-63v-472zM523 261v-43.5t3 -39t9.5 -28t19.5 -10.5q17 0 23 17.5t6 72.5v504h179v-532q0 -105 -56 -159.5t-157 -54.5q-62 0 -102 19.5t-63 55t-31.5 83.5t-6.5 105z" />
    <glyph glyph-name="ij" unicode="&#x133;" horiz-adv-x="450" 
d="M30 734h171v-154h-171v154zM30 523h171v-523h-171v523zM235 -195q-26 0 -49 3.5t-37 7.5l13 127q12 -3 22 -4t19 -1q26 0 37 13.5t11 54.5v517h171v-520q0 -69 -18 -108.5t-45.5 -59.5t-60.5 -25t-63 -5zM249 734h175v-154h-175v154z" />
    <glyph glyph-name="Jcircumflex" unicode="&#x134;" horiz-adv-x="450" 
d="M186 261v-43.5t3 -39t9.5 -28t19.5 -10.5q17 0 23 17.5t6 72.5v504h179v-532q0 -105 -56 -159.5t-157 -54.5q-62 0 -102 19.5t-63 55t-31.5 83.5t-6.5 105zM381 926l107 -117l-48 -53l-109 66l-107 -66l-49 53l108 117h98z" />
    <glyph glyph-name="jcircumflex" unicode="&#x135;" horiz-adv-x="223" 
d="M-53 -57q14 -4 20.5 -4.5t14.5 -0.5q22 0 33.5 15.5t11.5 65.5v504h171v-515q0 -71 -18.5 -111.5t-47 -60.5t-62 -25.5t-64.5 -5.5q-23 0 -46 4.5t-35 8.5zM160 751l99 -143l-66 -51l-84 76l-83 -76l-62 48l94 146h102z" />
    <glyph glyph-name="Kcommaaccent" unicode="&#x136;" horiz-adv-x="535" 
d="M200 -44h131v-98l-52 -140l-62 15l22 92h-39v131zM206 458l143 276h192l-179 -278l174 -456h-193l-97 287l-40 -63v-224h-178v734h178v-276z" />
    <glyph glyph-name="kcommaaccent" unicode="&#x137;" horiz-adv-x="473" 
d="M176 -44h131v-98l-52 -140l-62 15l22 92h-39v131zM198 348l85 175h191l-131 -184l137 -339h-187l-65 189l-30 -44v-145h-171v734h171v-386z" />
    <glyph glyph-name="Lacute" unicode="&#x139;" horiz-adv-x="393" 
d="M240 838l-186 -78l-43 78l161 118zM206 157h173v-157h-351v734h178v-577z" />
    <glyph glyph-name="lacute" unicode="&#x13a;" horiz-adv-x="227" 
d="M233 838l-186 -78l-43 78l161 118zM200 0h-172v734h172v-734z" />
    <glyph glyph-name="Lcommaaccent" unicode="&#x13b;" horiz-adv-x="393" 
d="M131 -44h131v-98l-52 -140l-62 15l22 92h-39v131zM206 157h173v-157h-351v734h178v-577z" />
    <glyph glyph-name="lcommaaccent" unicode="&#x13c;" horiz-adv-x="227" 
d="M48 -44h131v-98l-52 -140l-62 15l22 92h-39v131zM200 0h-172v734h172v-734z" />
    <glyph glyph-name="Lcaron" unicode="&#x13d;" horiz-adv-x="393" 
d="M378 734l-50 -213l-84 5v208h134zM206 157h173v-157h-351v734h178v-577z" />
    <glyph glyph-name="lcaron" unicode="&#x13e;" horiz-adv-x="283" 
d="M356 734l-50 -213l-84 5v208h134zM199 0h-172v734h172v-734z" />
    <glyph glyph-name="Ldot" unicode="&#x13f;" horiz-adv-x="393" 
d="M252 498h128v-146h-128v146zM206 157h173v-157h-351v734h178v-577z" />
    <glyph glyph-name="ldot" unicode="&#x140;" horiz-adv-x="385" 
d="M201 0h-172v734h172v-734zM235 457h138v-144h-138v144z" />
    <glyph glyph-name="Lslash" unicode="&#x141;" horiz-adv-x="393" 
d="M206 476l91 49l34 -113l-125 -65v-190h173v-157h-351v270l-59 -31l-30 113l89 47v335h178v-258z" />
    <glyph glyph-name="lslash" unicode="&#x142;" horiz-adv-x="333" 
d="M253 495l49 26l33 -119l-82 -42v-360h-172v292l-45 -23l-31 117l76 41v307h172v-239z" />
    <glyph glyph-name="Nacute" unicode="&#x143;" horiz-adv-x="540" 
d="M406 838l-186 -78l-43 78l161 118zM319 0l-119 388h-3v-388h-169v734h205l107 -382h4v382h168v-734h-193z" />
    <glyph glyph-name="nacute" unicode="&#x144;" horiz-adv-x="446" 
d="M363 694l-147 -138l-69 56l114 171zM421 0h-172v339q0 26 -4.5 37.5t-16.5 11.5q-17 0 -23 -20.5t-6 -65.5v-302h-172v523h154l4 -67h3q4 11 11.5 24.5t20.5 25.5t33 20.5t50 8.5q65 0 91.5 -42t26.5 -119v-374z" />
    <glyph glyph-name="Ncommaaccent" unicode="&#x145;" horiz-adv-x="540" 
d="M214 -44h131v-98l-52 -140l-62 15l22 92h-39v131zM319 0l-119 388h-3v-388h-169v734h205l107 -382h4v382h168v-734h-193z" />
    <glyph glyph-name="ncommaaccent" unicode="&#x146;" horiz-adv-x="446" 
d="M160 -44h131v-98l-52 -140l-62 15l22 92h-39v131zM421 0h-172v339q0 26 -4.5 37.5t-16.5 11.5q-17 0 -23 -20.5t-6 -65.5v-302h-172v523h154l4 -67h3q4 11 11.5 24.5t20.5 25.5t33 20.5t50 8.5q65 0 91.5 -42t26.5 -119v-374z" />
    <glyph glyph-name="Ncaron" unicode="&#x147;" horiz-adv-x="540" 
d="M236 760l-104 112l49 52l103 -59l104 59l49 -52l-104 -112h-97zM319 0l-119 388h-3v-388h-169v734h205l107 -382h4v382h168v-734h-193z" />
    <glyph glyph-name="ncaron" unicode="&#x148;" horiz-adv-x="446" 
d="M175 566l-94 146l61 48l83 -77l85 77l61 -48l-99 -146h-97zM421 0h-172v339q0 26 -4.5 37.5t-16.5 11.5q-17 0 -23 -20.5t-6 -65.5v-302h-172v523h154l4 -67h3q4 11 11.5 24.5t20.5 25.5t33 20.5t50 8.5q65 0 91.5 -42t26.5 -119v-374z" />
    <glyph glyph-name="napostrophe" unicode="&#x149;" horiz-adv-x="511" 
d="M95 574h-39l22 -92l-62 -15l-51 140v97h130v-130zM486 0h-172v339q0 26 -4.5 37.5t-16.5 11.5q-17 0 -23 -20.5t-6 -65.5v-302h-172v523h154l4 -67h3q4 11 11.5 24.5t20.5 25.5t33 20.5t50 8.5q65 0 91.5 -42t26.5 -119v-374z" />
    <glyph glyph-name="Omacron" unicode="&#x14c;" horiz-adv-x="518" 
d="M132 891h262v-109h-262v109zM252 -12q-68 0 -113 24.5t-71.5 72t-37.5 118t-11 163.5q0 188 59.5 285t189.5 97q69 0 114 -24t71.5 -70.5t36.5 -115t10 -158.5q0 -195 -56.5 -293.5t-191.5 -98.5zM259 135q14 0 24.5 9.5t17 35.5t10 72.5t3.5 120.5q0 69 -3 112t-9.5 67
t-16.5 32.5t-23 8.5q-15 0 -25.5 -9t-17.5 -34t-10.5 -69t-3.5 -113q0 -74 3 -119.5t9 -71t16.5 -34t25.5 -8.5z" />
    <glyph glyph-name="omacron" unicode="&#x14d;" horiz-adv-x="441" 
d="M99 705h259v-110h-259v110zM213 -12q-107 0 -154 67.5t-47 204.5q0 140 55.5 207.5t161.5 67.5q110 0 155 -66t45 -199q0 -143 -52.5 -212.5t-163.5 -69.5zM222 128q9 0 14.5 5.5t9 21t4.5 42.5t1 71q0 39 -1.5 63t-4.5 37.5t-8.5 18.5t-14.5 5t-15.5 -5.5t-10 -19.5
t-5 -39t-1.5 -65t1 -66t4.5 -41.5t9.5 -21.5t17 -6z" />
    <glyph glyph-name="Obreve" unicode="&#x14e;" horiz-adv-x="518" 
d="M208 933q4 -29 21 -41.5t44 -12.5q26 0 44.5 9.5t27.5 45.5l76 -16q-2 -30 -13 -56.5t-29.5 -46t-45 -30.5t-59.5 -11q-29 0 -55 9t-46 27t-32.5 45.5t-13.5 65.5zM252 -12q-68 0 -113 24.5t-71.5 72t-37.5 118t-11 163.5q0 188 59.5 285t189.5 97q69 0 114 -24
t71.5 -70.5t36.5 -115t10 -158.5q0 -195 -56.5 -293.5t-191.5 -98.5zM259 135q14 0 24.5 9.5t17 35.5t10 72.5t3.5 120.5q0 69 -3 112t-9.5 67t-16.5 32.5t-23 8.5q-15 0 -25.5 -9t-17.5 -34t-10.5 -69t-3.5 -113q0 -74 3 -119.5t9 -71t16.5 -34t25.5 -8.5z" />
    <glyph glyph-name="obreve" unicode="&#x14f;" horiz-adv-x="441" 
d="M213 -12q-107 0 -154 67.5t-47 204.5q0 140 55.5 207.5t161.5 67.5q110 0 155 -66t45 -199q0 -143 -52.5 -212.5t-163.5 -69.5zM222 128q9 0 14.5 5.5t9 21t4.5 42.5t1 71q0 39 -1.5 63t-4.5 37.5t-8.5 18.5t-14.5 5t-15.5 -5.5t-10 -19.5t-5 -39t-1.5 -65t1 -66
t4.5 -41.5t9.5 -21.5t17 -6zM166 739q5 -36 21.5 -51t41.5 -15q21 0 38.5 13.5t25.5 52.5l79 -9q-5 -76 -42.5 -118t-104.5 -42q-29 0 -54 9.5t-44 29t-30 49.5t-12 71z" />
    <glyph glyph-name="Ohungarumlaut" unicode="&#x150;" horiz-adv-x="518" 
d="M252 -12q-68 0 -113 24.5t-71.5 72t-37.5 118t-11 163.5q0 188 59.5 285t189.5 97q69 0 114 -24t71.5 -70.5t36.5 -115t10 -158.5q0 -195 -56.5 -293.5t-191.5 -98.5zM259 135q14 0 24.5 9.5t17 35.5t10 72.5t3.5 120.5q0 69 -3 112t-9.5 67t-16.5 32.5t-23 8.5
q-15 0 -25.5 -9t-17.5 -34t-10.5 -69t-3.5 -113q0 -74 3 -119.5t9 -71t16.5 -34t25.5 -8.5zM493 851l-168 -93l-47 65l141 121zM320 889l-143 -130l-60 48l108 162z" />
    <glyph glyph-name="ohungarumlaut" unicode="&#x151;" horiz-adv-x="441" 
d="M293 699l-111 -139l-59 36l74 164zM451 676l-135 -118l-55 48l103 142zM213 -12q-107 0 -154 67.5t-47 204.5q0 140 55.5 207.5t161.5 67.5q110 0 155 -66t45 -199q0 -143 -52.5 -212.5t-163.5 -69.5zM222 128q9 0 14.5 5.5t9 21t4.5 42.5t1 71q0 39 -1.5 63t-4.5 37.5
t-8.5 18.5t-14.5 5t-15.5 -5.5t-10 -19.5t-5 -39t-1.5 -65t1 -66t4.5 -41.5t9.5 -21.5t17 -6z" />
    <glyph glyph-name="OE" unicode="&#x152;" horiz-adv-x="702" 
d="M647 300h-167v-143h205v-157h-352q-21 -7 -41 -9.5t-42 -2.5q-68 0 -112.5 26t-70.5 75t-37 119t-11 157q0 190 58.5 286.5t186.5 96.5q38 0 80 -14h323v-157h-187v-132h167v-145zM263 135q9 0 20 3.5t19 9.5v432q-20 13 -40 13q-14 0 -24.5 -7.5t-18 -31.5t-11 -68.5
t-3.5 -117.5q0 -74 3 -120t10 -71t18 -33.5t27 -8.5z" />
    <glyph glyph-name="oe" unicode="&#x153;" horiz-adv-x="648" 
d="M635 190q-3 -61 -19.5 -100.5t-41.5 -62t-56 -31t-61 -8.5q-45 0 -76 13.5t-51 33.5q-22 -20 -51.5 -33.5t-71.5 -13.5q-103 0 -149 67.5t-46 204.5q0 140 55.5 207.5t159.5 67.5q39 0 65.5 -11.5t46.5 -31.5q22 20 53.5 31.5t66.5 11.5q106 0 148 -70.5t25 -230.5h-213
q-1 -57 6.5 -80t27.5 -23q14 0 21.5 15t5.5 54zM190 263q0 -40 1 -66t4.5 -41.5t9.5 -21.5t17 -6q9 0 14.5 5.5t9 21t4.5 42.5t1 71q0 39 -1.5 63t-4.5 37.5t-8.5 18.5t-14.5 5t-15.5 -5.5t-10 -19.5t-5 -39t-1.5 -65zM473 331q2 22 1 35t-5 20.5t-9 10t-10 2.5
q-15 0 -22.5 -15t-8.5 -53h54z" />
    <glyph glyph-name="Racute" unicode="&#x154;" horiz-adv-x="490" 
d="M206 0h-178v734h183q58 0 104.5 -10t78.5 -34t49.5 -65t17.5 -104q0 -59 -18 -110t-65 -81l112 -330h-189l-84 294h-11v-294zM222 438q27 0 43 14.5t16 55.5q0 22 -4.5 35.5t-12 21t-16.5 10t-18 2.5h-24v-139h16zM335 838l-186 -78l-43 78l161 118z" />
    <glyph glyph-name="racute" unicode="&#x155;" horiz-adv-x="418" 
d="M347 694l-147 -138l-69 56l114 171zM235 297q5 53 2 71.5t-14 18.5q-7 0 -11.5 -4.5t-7.5 -16.5t-4 -33.5t-1 -55.5v-277h-172v523h154l4 -67h3q5 16 13.5 30t21.5 25t32.5 17.5t46.5 6.5q69 0 93.5 -56t13.5 -169z" />
    <glyph glyph-name="Rcommaaccent" unicode="&#x156;" horiz-adv-x="490" 
d="M206 0h-178v734h183q58 0 104.5 -10t78.5 -34t49.5 -65t17.5 -104q0 -59 -18 -110t-65 -81l112 -330h-189l-84 294h-11v-294zM222 438q27 0 43 14.5t16 55.5q0 22 -4.5 35.5t-12 21t-16.5 10t-18 2.5h-24v-139h16zM183 -44h131v-98l-52 -140l-62 15l22 92h-39v131z" />
    <glyph glyph-name="rcommaaccent" unicode="&#x157;" horiz-adv-x="418" 
d="M46 -44h131v-98l-52 -140l-62 15l22 92h-39v131zM235 297q5 53 2 71.5t-14 18.5q-7 0 -11.5 -4.5t-7.5 -16.5t-4 -33.5t-1 -55.5v-277h-172v523h154l4 -67h3q5 16 13.5 30t21.5 25t32.5 17.5t46.5 6.5q69 0 93.5 -56t13.5 -169z" />
    <glyph glyph-name="Rcaron" unicode="&#x158;" horiz-adv-x="490" 
d="M160 760l-104 112l49 52l103 -59l104 59l49 -52l-104 -112h-97zM206 0h-178v734h183q58 0 104.5 -10t78.5 -34t49.5 -65t17.5 -104q0 -59 -18 -110t-65 -81l112 -330h-189l-84 294h-11v-294zM222 438q27 0 43 14.5t16 55.5q0 22 -4.5 35.5t-12 21t-16.5 10t-18 2.5h-24
v-139h16z" />
    <glyph glyph-name="rcaron" unicode="&#x159;" horiz-adv-x="418" 
d="M157 566l-94 146l61 48l83 -77l85 77l61 -48l-99 -146h-97zM235 297q5 53 2 71.5t-14 18.5q-7 0 -11.5 -4.5t-7.5 -16.5t-4 -33.5t-1 -55.5v-277h-172v523h154l4 -67h3q5 16 13.5 30t21.5 25t32.5 17.5t46.5 6.5q69 0 93.5 -56t13.5 -169z" />
    <glyph glyph-name="Sacute" unicode="&#x15a;" horiz-adv-x="477" 
d="M278 490q1 62 -10 85t-33 23q-18 0 -26 -11t-8 -27q0 -36 22.5 -57.5t59.5 -43.5q30 -17 62.5 -37.5t59.5 -48t45 -66t18 -91.5q0 -59 -16.5 -102t-46 -71t-70 -41.5t-88.5 -13.5q-123 0 -175.5 62t-55.5 179l183 20q0 -36 4.5 -58.5t12 -35t18 -17t23.5 -4.5q33 0 33 47
q0 20 -8.5 35.5t-22.5 28.5t-33.5 24t-40.5 23q-29 16 -59 35.5t-54.5 46t-40 63.5t-15.5 90q0 54 17 95t48 69t74 42.5t95 14.5q106 0 154 -59.5t47 -181.5zM369 838l-186 -78l-43 78l161 118z" />
    <glyph glyph-name="sacute" unicode="&#x15b;" horiz-adv-x="391" 
d="M335 694l-147 -138l-69 56l114 171zM230 353q0 23 -5.5 37.5t-20.5 14.5q-20 0 -20 -21q0 -18 15 -29.5t37 -22t48 -22.5t48 -31t37 -46.5t15 -69.5q0 -47 -15 -80t-40.5 -54t-60 -31t-73.5 -10q-89 0 -134 44t-50 124l153 15q0 -59 31 -59q19 0 19 25q0 18 -14.5 30
t-36.5 22.5t-47 23t-47 31.5t-36.5 47.5t-14.5 72.5q0 43 15.5 75t42 53.5t60.5 32t71 10.5q78 0 122.5 -37t47.5 -128z" />
    <glyph glyph-name="Scircumflex" unicode="&#x15c;" horiz-adv-x="477" 
d="M278 490q1 62 -10 85t-33 23q-18 0 -26 -11t-8 -27q0 -36 22.5 -57.5t59.5 -43.5q30 -17 62.5 -37.5t59.5 -48t45 -66t18 -91.5q0 -59 -16.5 -102t-46 -71t-70 -41.5t-88.5 -13.5q-123 0 -175.5 62t-55.5 179l183 20q0 -36 4.5 -58.5t12 -35t18 -17t23.5 -4.5q33 0 33 47
q0 20 -8.5 35.5t-22.5 28.5t-33.5 24t-40.5 23q-29 16 -59 35.5t-54.5 46t-40 63.5t-15.5 90q0 54 17 95t48 69t74 42.5t95 14.5q106 0 154 -59.5t47 -181.5zM294 926l107 -117l-48 -53l-109 66l-107 -66l-49 53l108 117h98z" />
    <glyph glyph-name="scircumflex" unicode="&#x15d;" horiz-adv-x="391" 
d="M249 751l99 -143l-66 -51l-84 76l-83 -76l-62 48l94 146h102zM230 353q0 23 -5.5 37.5t-20.5 14.5q-20 0 -20 -21q0 -18 15 -29.5t37 -22t48 -22.5t48 -31t37 -46.5t15 -69.5q0 -47 -15 -80t-40.5 -54t-60 -31t-73.5 -10q-89 0 -134 44t-50 124l153 15q0 -59 31 -59
q19 0 19 25q0 18 -14.5 30t-36.5 22.5t-47 23t-47 31.5t-36.5 47.5t-14.5 72.5q0 43 15.5 75t42 53.5t60.5 32t71 10.5q78 0 122.5 -37t47.5 -128z" />
    <glyph glyph-name="Scedilla" unicode="&#x15e;" horiz-adv-x="477" 
d="M205 -10q-100 11 -143 71.5t-46 167.5l183 20q0 -36 4.5 -58.5t12 -35t18 -17t23.5 -4.5q33 0 33 47q0 20 -8.5 35.5t-22.5 28.5t-33.5 24t-40.5 23q-29 16 -59 35.5t-54.5 46t-40 63.5t-15.5 90q0 54 17 95t48 69t74 42.5t95 14.5q106 0 154 -59.5t47 -181.5l-173 -17
q1 62 -10 85t-33 23q-18 0 -26 -11t-8 -27q0 -36 22.5 -57.5t59.5 -43.5q30 -17 62.5 -37.5t59.5 -48t45 -66t18 -91.5q0 -57 -15.5 -98.5t-42.5 -69.5t-64.5 -42.5t-82.5 -16.5l-18 -37l1 -1q6 5 16.5 8t23.5 3q38 0 54.5 -25.5t16.5 -57.5q0 -50 -31.5 -78t-76.5 -28
q-38 0 -66 17t-42 46l51 40q19 -30 43 -30q11 0 17.5 7t6.5 25q0 31 -23 31q-15 0 -24 -14l-39 19z" />
    <glyph glyph-name="scedilla" unicode="&#x15f;" horiz-adv-x="391" 
d="M157 -9q-71 8 -107 50.5t-40 114.5l153 15q0 -59 31 -59q19 0 19 25q0 18 -14.5 30t-36.5 22.5t-47 23t-47 31.5t-36.5 47.5t-14.5 72.5q0 43 15.5 75t42 53.5t60.5 32t71 10.5q78 0 122.5 -37t47.5 -128l-147 -17q0 23 -5.5 37.5t-20.5 14.5q-20 0 -20 -21
q0 -18 15 -29.5t37 -22t48 -22.5t48 -31t37 -46.5t15 -69.5q0 -44 -13 -75.5t-35.5 -52.5t-53.5 -32t-66 -14l-18 -37l1 -1q7 5 17 8t24 3q38 0 54 -25.5t16 -57.5q0 -50 -31 -78t-76 -28q-39 0 -67 17t-42 46l52 40q18 -30 42 -30q11 0 17.5 7t6.5 25q0 31 -22 31
q-16 0 -24 -14l-40 19z" />
    <glyph glyph-name="Scaron" unicode="&#x160;" horiz-adv-x="477" 
d="M278 490q1 62 -10 85t-33 23q-18 0 -26 -11t-8 -27q0 -36 22.5 -57.5t59.5 -43.5q30 -17 62.5 -37.5t59.5 -48t45 -66t18 -91.5q0 -59 -16.5 -102t-46 -71t-70 -41.5t-88.5 -13.5q-123 0 -175.5 62t-55.5 179l183 20q0 -36 4.5 -58.5t12 -35t18 -17t23.5 -4.5q33 0 33 47
q0 20 -8.5 35.5t-22.5 28.5t-33.5 24t-40.5 23q-29 16 -59 35.5t-54.5 46t-40 63.5t-15.5 90q0 54 17 95t48 69t74 42.5t95 14.5q106 0 154 -59.5t47 -181.5zM196 773l-104 112l49 52l103 -59l104 59l49 -52l-104 -112h-97z" />
    <glyph glyph-name="scaron" unicode="&#x161;" horiz-adv-x="391" 
d="M156 566l-94 146l61 48l83 -77l85 77l61 -48l-99 -146h-97zM230 353q0 23 -5.5 37.5t-20.5 14.5q-20 0 -20 -21q0 -18 15 -29.5t37 -22t48 -22.5t48 -31t37 -46.5t15 -69.5q0 -47 -15 -80t-40.5 -54t-60 -31t-73.5 -10q-89 0 -134 44t-50 124l153 15q0 -59 31 -59
q19 0 19 25q0 18 -14.5 30t-36.5 22.5t-47 23t-47 31.5t-36.5 47.5t-14.5 72.5q0 43 15.5 75t42 53.5t60.5 32t71 10.5q78 0 122.5 -37t47.5 -128z" />
    <glyph glyph-name="Tcommaaccent" unicode="&#x162;" horiz-adv-x="426" 
d="M124 577h-124v157h426v-157h-124v-577h-65l-23 -48l1 -1q7 5 17 8t23 3q38 0 54.5 -25.5t16.5 -57.5q0 -50 -31.5 -78t-76.5 -28q-38 0 -66 17t-42 46l51 40q19 -30 43 -30q11 0 17.5 7t6.5 25q0 31 -23 31q-15 0 -23 -14l-40 19l36 86h-54v577z" />
    <glyph glyph-name="tcommaaccent" unicode="&#x163;" horiz-adv-x="320" 
d="M157 -6q-21 5 -40 16t-33.5 30.5t-23.5 49.5t-9 73v234h-50v126h50v95l171 39v-134h81v-126h-81v-204q0 -45 10 -57.5t32 -12.5q6 0 15.5 2t22.5 5l16 -124q-11 -5 -37 -11t-61 -7q-1 0 -4 -4t-6 -9t-5.5 -9t-3.5 -4l-5 -11q6 5 16.5 8t23.5 3q38 0 54.5 -25.5
t16.5 -57.5q0 -50 -31.5 -78t-76.5 -28q-38 0 -66 17t-42 46l51 40q19 -30 43 -30q11 0 17.5 7t6.5 25q0 31 -23 31q-15 0 -23 -14l-40 19z" />
    <glyph glyph-name="Tcaron" unicode="&#x164;" horiz-adv-x="426" 
d="M160 760l-104 112l49 52l103 -59l104 59l49 -52l-104 -112h-97zM124 577h-124v157h426v-157h-124v-577h-178v577z" />
    <glyph glyph-name="tcaron" unicode="&#x165;" horiz-adv-x="320" 
d="M388 761l-50 -213l-84 5v208h134zM1 523h50v95l171 39v-134h81v-126h-81v-204q0 -45 10 -57.5t32 -12.5q6 0 15.5 2t22.5 5l16 -124q-12 -5 -41 -11.5t-66 -6.5q-26 0 -54.5 6t-52 25t-38.5 53t-15 91v234h-50v126z" />
    <glyph glyph-name="Tbar" unicode="&#x166;" horiz-adv-x="426" 
d="M124 308h-102v137h102v132h-124v157h426v-157h-124v-132h119v-137h-119v-308h-178v308z" />
    <glyph glyph-name="tbar" unicode="&#x167;" horiz-adv-x="320" 
d="M1 523h50v95l171 39v-134h81v-126h-81v-47h81v-109h-81v-54q1 -41 11.5 -52.5t30.5 -11.5q6 0 15.5 2t22.5 5l16 -124q-12 -5 -41 -11.5t-66 -6.5q-26 0 -54.5 6t-52 25t-38.5 53t-15 91v78h-50v109h50v47h-50v126z" />
    <glyph glyph-name="Utilde" unicode="&#x168;" horiz-adv-x="509" 
d="M107 792q7 61 30 91.5t59 30.5q15 0 31 -4t31 -8.5t28.5 -8t23.5 -3.5q11 0 18 5t10 22l70 -9q-9 -61 -28 -94t-61 -33q-16 0 -32.5 4t-32 8.5t-29 8.5t-23.5 4q-20 0 -26 -27zM306 734h178v-495q0 -53 -10 -98.5t-36.5 -79.5t-72.5 -53.5t-117 -19.5t-114.5 20.5
t-67.5 55.5t-32.5 81.5t-8.5 99.5v489h178v-449q0 -40 0.5 -68.5t5.5 -46.5t15.5 -26.5t30.5 -8.5q18 0 28 8t15 25.5t6.5 46t1.5 69.5v450z" />
    <glyph glyph-name="utilde" unicode="&#x169;" horiz-adv-x="445" 
d="M27 523h171v-340q0 -22 4 -35t18 -13q20 0 24.5 22.5t4.5 67.5v298h172v-523h-153l-5 67h-3q-5 -12 -13 -25.5t-21 -25.5t-32.5 -20t-49.5 -8q-34 0 -56.5 11t-36 31t-19 49.5t-5.5 67.5v376zM78 597q7 62 30 92t59 30q15 0 31 -3.5t31 -8t28.5 -8t23.5 -3.5q11 0 18 5
t10 22l70 -9q-9 -61 -28 -94.5t-61 -33.5q-16 0 -32.5 4t-32 9t-29 9t-23.5 4q-20 0 -26 -28z" />
    <glyph glyph-name="Umacron" unicode="&#x16a;" horiz-adv-x="509" 
d="M127 891h262v-109h-262v109zM306 734h178v-495q0 -53 -10 -98.5t-36.5 -79.5t-72.5 -53.5t-117 -19.5t-114.5 20.5t-67.5 55.5t-32.5 81.5t-8.5 99.5v489h178v-449q0 -40 0.5 -68.5t5.5 -46.5t15.5 -26.5t30.5 -8.5q18 0 28 8t15 25.5t6.5 46t1.5 69.5v450z" />
    <glyph glyph-name="umacron" unicode="&#x16b;" horiz-adv-x="445" 
d="M27 523h171v-340q0 -22 4 -35t18 -13q20 0 24.5 22.5t4.5 67.5v298h172v-523h-153l-5 67h-3q-5 -12 -13 -25.5t-21 -25.5t-32.5 -20t-49.5 -8q-34 0 -56.5 11t-36 31t-19 49.5t-5.5 67.5v376zM94 705h259v-110h-259v110z" />
    <glyph glyph-name="Ubreve" unicode="&#x16c;" horiz-adv-x="509" 
d="M191 920q4 -29 21 -41.5t44 -12.5q26 0 44.5 9.5t27.5 45.5l76 -16q-2 -30 -13 -56.5t-29.5 -46t-45 -30.5t-59.5 -11q-29 0 -55 9t-46 27t-32.5 45.5t-13.5 65.5zM306 734h178v-495q0 -53 -10 -98.5t-36.5 -79.5t-72.5 -53.5t-117 -19.5t-114.5 20.5t-67.5 55.5
t-32.5 81.5t-8.5 99.5v489h178v-449q0 -40 0.5 -68.5t5.5 -46.5t15.5 -26.5t30.5 -8.5q18 0 28 8t15 25.5t6.5 46t1.5 69.5v450z" />
    <glyph glyph-name="ubreve" unicode="&#x16d;" horiz-adv-x="445" 
d="M27 523h171v-340q0 -22 4 -35t18 -13q20 0 24.5 22.5t4.5 67.5v298h172v-523h-153l-5 67h-3q-5 -12 -13 -25.5t-21 -25.5t-32.5 -20t-49.5 -8q-34 0 -56.5 11t-36 31t-19 49.5t-5.5 67.5v376zM165 739q5 -36 21.5 -51t41.5 -15q21 0 38.5 13.5t25.5 52.5l79 -9
q-5 -76 -42.5 -118t-104.5 -42q-29 0 -54 9.5t-44 29t-30 49.5t-12 71z" />
    <glyph glyph-name="Uring" unicode="&#x16e;" horiz-adv-x="509" 
d="M306 734h178v-495q0 -53 -10 -98.5t-36.5 -79.5t-72.5 -53.5t-117 -19.5t-114.5 20.5t-67.5 55.5t-32.5 81.5t-8.5 99.5v489h178v-449q0 -40 0.5 -68.5t5.5 -46.5t15.5 -26.5t30.5 -8.5q18 0 28 8t15 25.5t6.5 46t1.5 69.5v450zM257 763q-58 0 -82.5 27.5t-24.5 69.5
q0 40 28 68.5t83 28.5q57 0 81.5 -27.5t24.5 -66.5q0 -45 -25.5 -72.5t-84.5 -27.5zM257 821q9 0 15 9t6 31q0 20 -5.5 27.5t-14.5 7.5q-8 0 -14.5 -6.5t-6.5 -29.5t5 -31t15 -8z" />
    <glyph glyph-name="uring" unicode="&#x16f;" horiz-adv-x="445" 
d="M226 569q-58 0 -82.5 27.5t-24.5 69.5q0 40 28 68.5t83 28.5q57 0 81.5 -27.5t24.5 -66.5q0 -44 -25.5 -72t-84.5 -28zM226 627q9 0 15 9t6 31q0 20 -5.5 27.5t-14.5 7.5q-8 0 -14.5 -6.5t-6.5 -29.5t5 -31t15 -8zM27 523h171v-340q0 -22 4 -35t18 -13q20 0 24.5 22.5
t4.5 67.5v298h172v-523h-153l-5 67h-3q-5 -12 -13 -25.5t-21 -25.5t-32.5 -20t-49.5 -8q-34 0 -56.5 11t-36 31t-19 49.5t-5.5 67.5v376z" />
    <glyph glyph-name="Uhungarumlaut" unicode="&#x170;" horiz-adv-x="509" 
d="M306 734h178v-495q0 -53 -10 -98.5t-36.5 -79.5t-72.5 -53.5t-117 -19.5t-114.5 20.5t-67.5 55.5t-32.5 81.5t-8.5 99.5v489h178v-449q0 -40 0.5 -68.5t5.5 -46.5t15.5 -26.5t30.5 -8.5q18 0 28 8t15 25.5t6.5 46t1.5 69.5v450zM493 851l-168 -93l-47 65l141 121z
M320 889l-143 -130l-60 48l108 162z" />
    <glyph glyph-name="uhungarumlaut" unicode="&#x171;" horiz-adv-x="445" 
d="M27 523h171v-340q0 -22 4 -35t18 -13q20 0 24.5 22.5t4.5 67.5v298h172v-523h-153l-5 67h-3q-5 -12 -13 -25.5t-21 -25.5t-32.5 -20t-49.5 -8q-34 0 -56.5 11t-36 31t-19 49.5t-5.5 67.5v376zM272 699l-111 -139l-59 36l74 164zM430 676l-135 -118l-55 48l103 142z" />
    <glyph glyph-name="Uogonek" unicode="&#x172;" horiz-adv-x="501" 
d="M302 734h174v-495q0 -77 -22 -132.5t-78 -98.5q-22 -17 -38.5 -45.5t-16.5 -48.5q0 -16 13 -16q11 0 27 23l52 -41q-17 -33 -48.5 -54t-75.5 -21q-35 0 -59 17t-24 53q0 34 17.5 61t48.5 53q-7 0 -14 -0.5t-14 -0.5q-71 0 -114 20.5t-66 55.5t-31 81.5t-8 99.5v489h174
v-449q0 -40 0.5 -68.5t5.5 -46.5t15.5 -26.5t30.5 -8.5q18 0 28 8t15 25.5t6.5 46t1.5 69.5v450z" />
    <glyph glyph-name="uogonek" unicode="&#x173;" horiz-adv-x="445" 
d="M27 523h171v-340q0 -22 4 -35t18 -13q20 0 24.5 22.5t4.5 67.5v298h172v-523h-29q-17 -21 -30.5 -44t-13.5 -42q0 -16 13 -16q11 0 27 23l52 -41q-17 -33 -48.5 -54t-75.5 -21q-35 0 -59 17t-24 53q0 37 21 66t57 59h-43l-5 67h-3q-5 -12 -13 -25.5t-21 -25.5t-32.5 -20
t-49.5 -8q-34 0 -56.5 11t-36 31t-19 49.5t-5.5 67.5v376z" />
    <glyph glyph-name="Wcircumflex" unicode="&#x174;" horiz-adv-x="815" 
d="M469 0l-58 475h-5l-49 -475h-234l-124 734h194l42 -541h6l69 541h203l73 -537h4l37 537h188l-113 -734h-233zM459 926l107 -117l-48 -53l-109 66l-107 -66l-49 53l108 117h98z" />
    <glyph glyph-name="wcircumflex" unicode="&#x175;" horiz-adv-x="692" 
d="M402 751l99 -143l-66 -51l-84 76l-83 -76l-62 48l94 146h102zM87 0l-93 523h172l33 -370h6l44 370h203l46 -370h6l31 370h164l-86 -523h-219l-45 365h-4l-44 -365h-214z" />
    <glyph glyph-name="Ycircumflex" unicode="&#x176;" horiz-adv-x="503" 
d="M340 0h-174v273l-175 461h196l67 -283h3l66 283h189l-172 -456v-278zM312 926l107 -117l-48 -53l-109 66l-107 -66l-49 53l108 117h98z" />
    <glyph glyph-name="ycircumflex" unicode="&#x177;" horiz-adv-x="434" 
d="M299 -23q-15 -55 -34.5 -89t-44.5 -52.5t-56 -24.5t-68 -6q-12 0 -25.5 1.5t-26.5 3.5t-23 5t-15 5l15 122q13 -4 27 -6t22 -2q27 0 42 13t23 51l4 21l-148 504h193l36 -335h5l36 335h183zM273 751l99 -143l-66 -51l-84 76l-83 -76l-62 48l94 146h102z" />
    <glyph glyph-name="Ydieresis" unicode="&#x178;" horiz-adv-x="503" 
d="M340 0h-174v273l-175 461h196l67 -283h3l66 283h189l-172 -456v-278zM112 917h127v-142h-127v142zM290 917h126v-142h-126v142z" />
    <glyph glyph-name="Zacute" unicode="&#x179;" horiz-adv-x="414" 
d="M14 734h387v-143l-188 -434h195v-157h-403v144l189 433h-180v157zM335 838l-186 -78l-43 78l161 118z" />
    <glyph glyph-name="zacute" unicode="&#x17a;" horiz-adv-x="373" 
d="M336 694l-147 -138l-69 56l114 171zM21 523h335v-134l-139 -240h146v-149h-351v136l143 240h-134v147z" />
    <glyph glyph-name="Zdotaccent" unicode="&#x17b;" horiz-adv-x="414" 
d="M118 926h171v-154h-171v154zM14 734h387v-143l-188 -434h195v-157h-403v144l189 433h-180v157z" />
    <glyph glyph-name="zdotaccent" unicode="&#x17c;" horiz-adv-x="373" 
d="M21 523h335v-134l-139 -240h146v-149h-351v136l143 240h-134v147zM109 734h171v-154h-171v154z" />
    <glyph glyph-name="Zcaron" unicode="&#x17d;" horiz-adv-x="414" 
d="M155 760l-104 112l49 52l103 -59l104 59l49 -52l-104 -112h-97zM14 734h387v-143l-188 -434h195v-157h-403v144l189 433h-180v157z" />
    <glyph glyph-name="zcaron" unicode="&#x17e;" horiz-adv-x="373" 
d="M140 566l-94 146l61 48l83 -77l85 77l61 -48l-99 -146h-97zM21 523h335v-134l-139 -240h146v-149h-351v136l143 240h-134v147z" />
    <glyph glyph-name="florin" unicode="&#x192;" horiz-adv-x="491" 
d="M75 462h84l16 92q11 66 34 104.5t51.5 58.5t58.5 25.5t55 5.5q46 0 77 -8.5t47 -15.5l-39 -119q-12 4 -26 6.5t-26 2.5q-25 0 -39 -14t-22 -54l-15 -84h114l-23 -122h-112l-50 -283q-12 -66 -35.5 -105.5t-53 -60t-61.5 -26.5t-61 -6q-43 0 -73 7t-42 11l34 127
q12 -5 27 -7t27 -2q26 0 43 13.5t25 57.5l47 274h-85z" />
    <glyph glyph-name="Scommaaccent" unicode="&#x218;" horiz-adv-x="477" 
d="M278 490q1 62 -10 85t-33 23q-18 0 -26 -11t-8 -27q0 -36 22.5 -57.5t59.5 -43.5q30 -17 62.5 -37.5t59.5 -48t45 -66t18 -91.5q0 -59 -16.5 -102t-46 -71t-70 -41.5t-88.5 -13.5q-123 0 -175.5 62t-55.5 179l183 20q0 -36 4.5 -58.5t12 -35t18 -17t23.5 -4.5q33 0 33 47
q0 20 -8.5 35.5t-22.5 28.5t-33.5 24t-40.5 23q-29 16 -59 35.5t-54.5 46t-40 63.5t-15.5 90q0 54 17 95t48 69t74 42.5t95 14.5q106 0 154 -59.5t47 -181.5zM178 -44h131v-98l-52 -140l-62 15l22 92h-39v131z" />
    <glyph glyph-name="scommaaccent" unicode="&#x219;" horiz-adv-x="391" 
d="M128 -44h131v-98l-52 -140l-62 15l22 92h-39v131zM230 353q0 23 -5.5 37.5t-20.5 14.5q-20 0 -20 -21q0 -18 15 -29.5t37 -22t48 -22.5t48 -31t37 -46.5t15 -69.5q0 -47 -15 -80t-40.5 -54t-60 -31t-73.5 -10q-89 0 -134 44t-50 124l153 15q0 -59 31 -59q19 0 19 25
q0 18 -14.5 30t-36.5 22.5t-47 23t-47 31.5t-36.5 47.5t-14.5 72.5q0 43 15.5 75t42 53.5t60.5 32t71 10.5q78 0 122.5 -37t47.5 -128z" />
    <glyph glyph-name="uni021A" unicode="&#x21a;" horiz-adv-x="426" 
d="M124 577h-124v157h426v-157h-124v-577h-178v577zM147 -44h131v-98l-52 -140l-62 15l22 92h-39v131z" />
    <glyph glyph-name="uni021B" unicode="&#x21b;" horiz-adv-x="320" 
d="M127 -44h131v-98l-52 -140l-62 15l22 92h-39v131zM1 523h50v95l171 39v-134h81v-126h-81v-204q0 -45 10 -57.5t32 -12.5q6 0 15.5 2t22.5 5l16 -124q-12 -5 -41 -11.5t-66 -6.5q-26 0 -54.5 6t-52 25t-38.5 53t-15 91v234h-50v126z" />
    <glyph glyph-name="circumflex" unicode="&#x2c6;" 
d="M300 751l99 -143l-66 -51l-84 76l-83 -76l-62 48l94 146h102z" />
    <glyph glyph-name="caron" unicode="&#x2c7;" 
d="M198 566l-94 146l61 48l83 -77l85 77l61 -48l-99 -146h-97z" />
    <glyph glyph-name="uni02C9" unicode="&#x2c9;" 
d="M121 705h259v-110h-259v110z" />
    <glyph glyph-name="breve" unicode="&#x2d8;" 
d="M188 739q5 -36 21.5 -51t41.5 -15q21 0 38.5 13.5t25.5 52.5l79 -9q-5 -76 -42.5 -118t-104.5 -42q-29 0 -54 9.5t-44 29t-30 49.5t-12 71z" />
    <glyph glyph-name="dotaccent" unicode="&#x2d9;" 
d="M165 734h171v-154h-171v154z" />
    <glyph glyph-name="ring" unicode="&#x2da;" 
d="M249 569q-58 0 -82.5 27.5t-24.5 69.5q0 40 28 68.5t83 28.5q57 0 81.5 -27.5t24.5 -66.5q0 -44 -25.5 -72t-84.5 -28zM249 627q9 0 15 9t6 31q0 20 -5.5 27.5t-14.5 7.5q-8 0 -14.5 -6.5t-6.5 -29.5t5 -31t15 -8z" />
    <glyph glyph-name="ogonek" unicode="&#x2db;" 
d="M301 3q-18 -22 -32.5 -45.5t-14.5 -43.5q0 -16 13 -16q11 0 27 23l52 -41q-17 -33 -48.5 -54t-75.5 -21q-35 0 -59 17t-24 53q0 40 24.5 71t66.5 64z" />
    <glyph glyph-name="tilde" unicode="&#x2dc;" 
d="M100 597q7 62 30 92t59 30q15 0 31 -3.5t31 -8t28.5 -8t23.5 -3.5q11 0 18 5t10 22l70 -9q-9 -61 -28 -94.5t-61 -33.5q-16 0 -32.5 4t-32 9t-29 9t-23.5 4q-20 0 -26 -28z" />
    <glyph glyph-name="hungarumlaut" unicode="&#x2dd;" 
d="M305 699l-111 -139l-59 36l74 164zM463 676l-135 -118l-55 48l103 142z" />
    <glyph glyph-name="Delta" unicode="&#x394;" horiz-adv-x="561" 
d="M8 0l153 734h231l167 -734h-551zM219 156h119l-57 383h-6z" />
    <glyph glyph-name="Omega" unicode="&#x3a9;" horiz-adv-x="583" 
d="M416 142h95v-142h-197v163q23 14 32 71.5t9 154.5q0 62 -4.5 102t-12.5 62.5t-19.5 31t-25.5 8.5q-13 0 -25 -7t-21 -29.5t-14 -64.5t-5 -111q0 -50 2 -87t7 -63.5t13.5 -42.5t21.5 -25v-163h-200v142h94v4q-69 26 -97 91t-28 171q0 72 14 133.5t44.5 107.5t78 72
t115.5 26q75 0 123.5 -25.5t76 -69t38.5 -101.5t11 -124q0 -53 -5.5 -97t-20 -79t-39 -60.5t-61.5 -40.5v-8z" />
    <glyph glyph-name="mu" unicode="&#x3bc;" horiz-adv-x="470" 
d="M39 523h170v-316q0 -37 4 -52.5t20 -15.5t21.5 17t5.5 55v312h169v-523h-127l-15 88q-7 -23 -17 -40.5t-23 -31.5q-14 -15 -30 -25t-32 -15l-2 -3l22 -149h-166v699z" />
    <glyph glyph-name="pi" unicode="&#x3c0;" horiz-adv-x="537" 
d="M481 0h-170v385h-84v-385h-171v523h425v-523z" />
    <glyph glyph-name="endash" unicode="&#x2013;" horiz-adv-x="368" 
d="M368 362v-117h-368v117h368z" />
    <glyph glyph-name="emdash" unicode="&#x2014;" horiz-adv-x="739" 
d="M737 361v-116h-736v116h736z" />
    <glyph glyph-name="quoteleft" unicode="&#x2018;" horiz-adv-x="200" 
d="M174 474h-149v127l70 171l72 -19l-43 -123h50v-156z" />
    <glyph glyph-name="quoteright" unicode="&#x2019;" horiz-adv-x="200" 
d="M25 734h149v-126l-69 -172l-73 20l44 122h-51v156z" />
    <glyph glyph-name="quotesinglbase" unicode="&#x201a;" horiz-adv-x="200" 
d="M25 156h149v-126l-69 -172l-73 20l44 122h-51v156z" />
    <glyph glyph-name="quotedblleft" unicode="&#x201c;" horiz-adv-x="384" 
d="M359 474h-149v127l70 171l72 -19l-43 -123h50v-156zM174 474h-149v127l70 171l72 -19l-43 -123h50v-156z" />
    <glyph glyph-name="quotedblright" unicode="&#x201d;" horiz-adv-x="384" 
d="M210 734h149v-126l-69 -172l-73 20l44 122h-51v156zM25 734h149v-126l-69 -172l-73 20l44 122h-51v156z" />
    <glyph glyph-name="quotedblbase" unicode="&#x201e;" horiz-adv-x="384" 
d="M25 156h149v-126l-69 -172l-73 20l44 122h-51v156zM210 156h149v-126l-69 -172l-73 20l44 122h-51v156z" />
    <glyph glyph-name="dagger" unicode="&#x2020;" horiz-adv-x="389" 
d="M261 485l-18 -215h-103l-17 215l-108 13v98l107 13l17 125h106l16 -125l113 -13v-98z" />
    <glyph glyph-name="daggerdbl" unicode="&#x2021;" horiz-adv-x="393" 
d="M266 317l-18 -69h-102l-18 69l-113 13v99l113 12l17 38l-17 57l-112 13v99l112 13l16 73h106l16 -73l113 -13v-99l-113 -13l-18 -57l18 -38l113 -12v-99z" />
    <glyph glyph-name="bullet" unicode="&#x2022;" horiz-adv-x="360" 
d="M42 337q0 39 10.5 66t29 44t43 24.5t52.5 7.5q30 0 56 -7.5t44.5 -24.5t29.5 -44t11 -66q0 -73 -40.5 -108t-100.5 -35q-59 0 -97 34t-38 109z" />
    <glyph glyph-name="ellipsis" unicode="&#x2026;" horiz-adv-x="649" 
d="M25 173h155v-173h-155v173zM247 173h155v-173h-155v173zM469 173h155v-173h-155v173z" />
    <glyph glyph-name="perthousand" unicode="&#x2030;" horiz-adv-x="945" 
d="M643 168q0 91 38.5 135.5t107.5 44.5q72 0 102.5 -42.5t30.5 -132.5q0 -94 -38.5 -140t-109.5 -46q-68 0 -99.5 42t-31.5 139zM782 81q13 0 18.5 18.5t5.5 71.5q0 26 -1.5 42.5t-4 25.5t-6.5 12t-10 3q-5 0 -9 -2.5t-7 -11.5t-5 -26t-2 -46q0 -48 3.5 -67.5t17.5 -19.5z
M343 168q0 91 38 135.5t107 44.5q72 0 102.5 -42.5t30.5 -132.5q0 -94 -38 -140t-109 -46q-68 0 -99.5 42t-31.5 139zM482 81q13 0 18 18.5t5 71.5q0 26 -1 42.5t-4 25.5t-7 12t-10 3q-5 0 -9 -2.5t-7 -11.5t-5 -26t-2 -46q0 -48 3.5 -67.5t18.5 -19.5zM24 553q0 91 38 136
t107 45q72 0 102.5 -42.5t30.5 -132.5q0 -95 -38 -140.5t-109 -45.5q-68 0 -99.5 42t-31.5 138zM163 467q13 0 18 18t5 71q0 27 -1 43t-4 25t-7 12t-10 3q-5 0 -9 -2.5t-7 -11t-5 -25.5t-2 -46q0 -48 3.5 -67.5t18.5 -19.5zM63 208l499 453l85 -90l-503 -453z" />
    <glyph glyph-name="guilsinglleft" unicode="&#x2039;" horiz-adv-x="256" 
d="M136 41l-121 210l120 201l111 -44l-78 -155l77 -165z" />
    <glyph glyph-name="guilsinglright" unicode="&#x203a;" horiz-adv-x="256" 
d="M11 88l77 165l-78 155l111 44l120 -201l-121 -210z" />
    <glyph glyph-name="fraction" unicode="&#x2044;" horiz-adv-x="172" 
d="M199 760l114 -50l-330 -722l-112 50z" />
    <glyph glyph-name="Euro" unicode="&#x20ac;" horiz-adv-x="522" 
d="M249 248q4 -66 13.5 -91t34.5 -25q27 0 33.5 24.5t7.5 68.5l164 -9q-5 -122 -57.5 -175t-158.5 -53q-53 0 -90.5 17t-63.5 50t-41 81.5t-21 111.5h-64l14 100h45v12v24h-44l15 100h36q17 131 73.5 197.5t161.5 66.5q106 0 153 -61.5t49 -174.5l-165 -12q-1 53 -10 75.5
t-33 22.5q-23 0 -35 -25.5t-17 -88.5h115l-16 -100h-104v-21v-15h101l-14 -100h-82z" />
    <glyph glyph-name="trademark" unicode="&#x2122;" horiz-adv-x="718" 
d="M90 633h-75v101h268v-101h-73v-283h-120v283zM459 350l-53 249v-249h-102v384h150l47 -258l42 258h157v-384h-111v249l-49 -249h-81z" />
    <glyph glyph-name="uni2126" unicode="&#x2126;" horiz-adv-x="583" 
d="M416 142h95v-142h-197v163q23 14 32 71.5t9 154.5q0 62 -4.5 102t-12.5 62.5t-19.5 31t-25.5 8.5q-13 0 -25 -7t-21 -29.5t-14 -64.5t-5 -111q0 -50 2 -87t7 -63.5t13.5 -42.5t21.5 -25v-163h-200v142h94v4q-69 26 -97 91t-28 171q0 72 14 133.5t44.5 107.5t78 72
t115.5 26q75 0 123.5 -25.5t76 -69t38.5 -101.5t11 -124q0 -53 -5.5 -97t-20 -79t-39 -60.5t-61.5 -40.5v-8z" />
    <glyph glyph-name="partialdiff" unicode="&#x2202;" horiz-adv-x="546" 
d="M335 408q-1 40 -3.5 74t-11.5 59t-27.5 39.5t-49.5 14.5q-41 0 -74.5 -14t-59.5 -28l-50 120q19 13 44.5 24t53 19.5t55.5 13t52 4.5q71 0 117 -25.5t72.5 -70t37 -103t10.5 -124.5q0 -78 -10 -153.5t-38.5 -135.5t-79.5 -97t-133 -37q-66 0 -107 22t-63.5 56t-30 76
t-7.5 82q0 49 11 94t34.5 79.5t60 55t88.5 20.5q45 0 70.5 -19t38.5 -46zM254 120q19 0 31 13t19 32.5t9.5 43.5t2.5 47q0 42 -11 67.5t-40 25.5q-13 0 -24.5 -5.5t-20 -20t-13.5 -38.5t-5 -60q0 -51 11 -78t41 -27z" />
    <glyph glyph-name="uni2206" unicode="&#x2206;" horiz-adv-x="561" 
d="M8 0l153 734h231l167 -734h-551zM219 156h119l-57 383h-6z" />
    <glyph glyph-name="product" unicode="&#x220f;" horiz-adv-x="614" 
d="M543 -161h-179v744h-113v-744h-179v895h471v-895z" />
    <glyph glyph-name="summation" unicode="&#x2211;" horiz-adv-x="493" 
d="M224 -15h228v-161h-438v159l186 297l-164 296v158h414v-161h-200l160 -296z" />
    <glyph glyph-name="minus" unicode="&#x2212;" horiz-adv-x="472" 
d="M75 281v126h322v-126h-322z" />
    <glyph glyph-name="radical" unicode="&#x221a;" horiz-adv-x="579" 
d="M239 0l-96 236l-66 -26l-46 119l208 82l75 -208l118 556l140 -28l-163 -731h-170z" />
    <glyph glyph-name="infinity" unicode="&#x221e;" horiz-adv-x="659" 
d="M472 171q-50 0 -84 21t-57 47q-25 -26 -60.5 -47.5t-87.5 -21.5q-29 0 -55.5 8.5t-47 25.5t-33 43t-12.5 62q0 64 42 105.5t119 41.5q49 0 81 -21t58 -48q25 26 61 47.5t84 21.5q27 0 53 -8t46.5 -26t33 -46t12.5 -67q0 -30 -12.5 -55.5t-34 -43.5t-49 -28.5t-57.5 -10.5
zM192 271q21 0 40.5 13t36.5 31q-17 17 -35 28.5t-39 11.5q-18 0 -28 -11.5t-10 -28.5t8 -30.5t27 -13.5zM398 311q16 -19 31.5 -30t35.5 -11q17 0 27.5 13t10.5 30t-7.5 30t-26.5 13q-17 0 -35.5 -12.5t-35.5 -32.5z" />
    <glyph glyph-name="integral" unicode="&#x222b;" horiz-adv-x="347" 
d="M322 605q-22 7 -48 7q-9 0 -16 -3t-11.5 -11.5t-5.5 -24t2 -40.5l69 -517q7 -59 -7.5 -97t-42.5 -61t-65 -32t-75 -9q-30 0 -58.5 5.5t-42.5 10.5l7 127q11 -5 23.5 -6t25.5 -1q11 0 20.5 3t16 10.5t9 21.5t-0.5 36l-68 516q-8 60 4 100t36.5 64t59.5 34t74 10
q30 0 59.5 -6t42.5 -10z" />
    <glyph glyph-name="approxequal" unicode="&#x2248;" horiz-adv-x="472" 
d="M41 138q10 72 40 105.5t76 33.5q20 0 38.5 -3.5t45.5 -14.5q10 -3 24 -8.5t28 -5.5q11 0 17.5 7.5t10.5 26.5l104 -25q-6 -59 -30.5 -98t-73.5 -39q-26 0 -48 6t-39 13q-19 6 -34 11.5t-25 5.5q-12 0 -20 -8t-13 -36zM41 326q10 72 40 105.5t76 33.5q20 0 38.5 -3.5
t45.5 -14.5q10 -3 24 -8.5t28 -5.5q11 0 17.5 7.5t10.5 26.5l104 -25q-6 -59 -30.5 -98t-73.5 -39q-26 0 -48 6t-39 13q-19 6 -34 11.5t-25 5.5q-12 0 -20 -8t-13 -36z" />
    <glyph glyph-name="notequal" unicode="&#x2260;" horiz-adv-x="472" 
d="M212 158l-32 -63h-100l33 63h-38v126h104l19 37h-123v126h187l31 60h96l-30 -60h38v-126h-102l-19 -37h121v-126h-185z" />
    <glyph glyph-name="lessequal" unicode="&#x2264;" horiz-adv-x="472" 
d="M74 0v126h323v-126h-323zM75 233v166l322 113v-151l-180 -42l180 -37v-149z" />
    <glyph glyph-name="greaterequal" unicode="&#x2265;" horiz-adv-x="472" 
d="M75 0v126h322v-126h-322zM397 412v-166l-322 -113v150l179 42l-179 37v150z" />
    <glyph glyph-name="lozenge" unicode="&#x25ca;" horiz-adv-x="544" 
d="M190 46l-143 324l144 324h163l143 -324l-144 -324h-163zM347 370l-75 186l-75 -186l75 -189z" />
    <glyph glyph-name="uniFB01" unicode="&#xfb01;" horiz-adv-x="509" 
d="M289 608q-12 3 -24 3q-23 0 -31 -14.5t-9 -43.5v-30h257v-523h-171v396h-86v-396h-171v396h-48v127h48v44q0 62 16 98t41 54.5t55 23.5t59 5q16 0 34 -3t30 -7v-130zM316 734h166v-154h-166v154z" />
    <glyph glyph-name="uniFB02" unicode="&#xfb02;" horiz-adv-x="507" 
d="M289 608q-12 3 -24 3q-23 0 -31 -14.5t-9 -43.5v-30h64v-127h-64v-396h-171v396h-48v127h48v44q0 62 16 98t41 54.5t55.5 23.5t58.5 5q17 0 34.5 -3t29.5 -7v-130zM482 0h-171v734h171v-734z" />
    </font>
</defs>
</svg>
